{"glyphs":{" ":{"ha":694,"x_min":0,"x_max":0,"o":""},"A":{"ha":1406,"x_min":0,"x_max":1356,"o":"m 1356 -28 q 1344 -67 1356 -46 q 1297 -85 1306 -85 l 1278 -85 l 875 -274 l 838 -274 q 807 -256 825 -274 q 793 -206 803 -250 l 697 -1 l 599 -1 q 556 -21 583 -1 q 538 -33 549 -24 q 483 -183 524 -65 q 485 -201 485 -190 q 451 -240 472 -214 l 408 -240 l 396 -224 l 371 -224 l 271 -194 q 253 -194 257 -197 q 249 -190 247 -190 l 211 -190 l 86 -147 l 53 -147 q 25 -129 44 -147 q 0 -101 6 -111 l 403 1029 l 403 1081 l 438 1099 l 486 1099 l 496 1111 q 510 1099 499 1110 l 585 1111 l 786 1113 l 907 1103 l 917 1111 l 933 1103 q 942 1101 936 1103 q 951 1099 949 1099 l 972 1099 l 1006 1090 q 1009 1094 1007 1090 q 1017 1099 1011 1099 q 1042 1083 1028 1099 q 1057 1057 1057 1068 l 1313 232 l 1333 47 l 1356 -28 m 1233 -4 l 1221 140 q 1215 169 1217 154 q 1164 394 1206 274 l 1089 614 q 1054 703 1089 615 q 972 979 1028 800 q 939 1018 960 993 l 863 1018 l 846 1026 l 836 1026 l 829 1018 q 794 1031 828 1031 l 563 1026 q 551 1018 560 1026 l 508 1018 q 497 1006 507 1015 q 475 1010 493 1010 l 131 -67 l 258 -106 l 296 -106 l 363 -122 q 378 -124 368 -122 q 392 -126 388 -126 l 457 14 l 457 35 q 489 72 457 46 q 535 100 521 97 l 568 88 l 624 88 l 656 100 l 661 96 l 732 138 l 757 124 q 781 82 775 111 l 906 -156 l 1233 -4 m 922 371 q 871 322 925 332 l 740 335 l 707 331 q 699 336 706 333 q 665 339 692 339 l 639 347 l 568 347 l 517 406 l 567 622 q 576 669 567 639 q 711 729 588 688 q 736 721 717 731 l 782 721 l 825 729 q 876 660 872 704 l 872 610 l 897 450 l 922 371 m 797 422 l 772 576 l 772 589 l 750 632 l 668 632 l 629 444 l 703 422 l 797 422 z "},"B":{"ha":1332,"x_min":3,"x_max":1275,"o":"m 1275 117 q 1243 24 1275 79 q 1197 -53 1229 -1 q 1178 -67 1190 -57 q 1099 -137 1153 -93 q 974 -208 1061 -161 q 864 -244 940 -226 l 811 -257 q 814 -251 814 -254 q 808 -249 813 -249 q 805 -253 803 -249 q 801 -257 807 -257 l 764 -257 l 756 -265 l 490 -265 l 482 -274 l 429 -257 l 428 -261 q 419 -265 425 -265 l 128 -243 l 106 -204 l 106 -165 l 50 713 l 21 926 l 3 986 l 3 1025 l 65 1072 l 133 1072 l 268 1103 l 331 1103 q 342 1107 338 1103 l 344 1111 l 639 1103 q 649 1107 643 1103 q 658 1111 654 1111 q 674 1107 664 1111 q 690 1103 685 1103 q 697 1107 696 1103 l 697 1111 l 768 1099 l 775 1103 l 785 1094 l 792 1099 l 1024 1022 q 1183 925 1115 992 q 1224 851 1197 911 q 1250 772 1250 792 l 1250 636 q 1246 621 1250 631 q 1242 607 1242 611 q 1178 458 1239 533 q 1076 338 1163 439 q 1154 299 1106 325 q 1206 251 1190 274 q 1275 117 1275 153 m 1174 100 q 1144 164 1174 124 q 1138 182 1142 171 l 1094 219 q 1050 246 1065 244 l 1040 254 l 974 254 q 945 269 957 254 q 933 300 933 283 q 961 363 933 328 q 976 369 968 365 q 1017 414 990 386 q 1103 515 1058 444 q 1153 636 1153 592 l 1153 733 q 1122 829 1153 775 q 1060 907 1094 879 q 935 960 1008 949 q 914 974 929 965 q 843 993 888 979 q 819 997 835 993 q 794 1001 803 1001 l 736 1018 l 728 1010 l 704 1035 l 553 1035 q 546 1031 546 1035 q 547 1026 546 1029 l 538 1035 q 524 1026 529 1026 l 490 1035 q 478 1031 488 1035 q 464 1026 469 1026 q 456 1031 458 1026 q 450 1035 454 1035 q 433 1031 444 1035 q 415 1026 421 1026 q 407 1031 410 1026 q 403 1035 404 1035 l 256 1018 l 225 1006 l 200 1006 l 118 971 l 156 686 l 190 251 l 207 -128 q 221 -153 207 -140 q 247 -168 235 -167 l 407 -181 l 756 -181 l 868 -151 q 885 -150 879 -151 q 1026 -79 999 -97 q 1149 49 1110 -28 q 1174 100 1174 97 m 844 450 q 833 418 839 435 q 804 393 822 394 l 483 401 q 440 421 461 401 q 418 450 422 435 l 464 683 l 469 776 q 525 843 476 781 q 557 853 538 846 l 678 828 q 685 826 679 828 q 694 824 692 824 l 731 824 l 756 811 q 813 788 790 813 q 836 750 824 769 l 824 657 l 824 489 l 844 450 m 789 44 q 739 6 774 6 l 667 -1 l 660 1 l 581 -11 l 535 -33 l 469 -33 q 436 -6 468 -32 q 389 204 421 64 l 464 292 l 471 288 l 485 300 l 522 292 l 667 292 q 669 287 669 290 q 675 283 669 283 q 685 288 681 283 q 694 292 690 292 q 735 276 725 285 q 760 253 744 268 l 760 201 l 789 44 m 725 478 l 725 725 q 690 747 721 733 l 633 761 q 613 749 619 761 l 575 749 l 536 518 q 588 486 535 494 l 638 478 l 725 478 m 679 100 q 657 199 679 147 q 622 213 651 213 l 550 213 l 494 194 l 539 64 l 635 81 l 656 81 q 671 88 663 81 q 679 100 679 94 z "},"C":{"ha":1322,"x_min":0,"x_max":1269,"o":"m 1269 940 q 1240 875 1269 938 q 1193 771 1228 849 q 1160 660 1185 742 q 1139 621 1156 646 q 1113 611 1131 611 l 1083 611 l 1022 667 l 917 683 l 733 683 q 653 624 665 683 q 644 578 651 615 l 603 342 q 613 325 603 325 q 615 329 618 325 q 618 333 613 333 q 624 329 624 333 q 625 325 624 325 l 674 338 l 678 333 l 779 358 l 810 358 l 994 401 q 1014 396 1001 400 q 1044 369 1021 392 q 1056 328 1054 332 q 1076 293 1065 299 l 1076 88 l 1128 -33 q 1115 -69 1128 -53 l 1092 -101 q 1015 -150 1063 -110 q 939 -207 956 -199 q 874 -237 922 -215 q 828 -257 860 -243 l 764 -265 l 758 -261 l 750 -269 l 664 -274 q 664 -268 663 -272 q 658 -265 664 -265 l 625 -265 l 458 -239 q 283 -182 403 -225 q 219 -144 271 -178 q 21 224 58 -42 l 0 369 l 17 588 q 224 872 93 757 q 232 888 229 876 q 382 997 293 936 q 479 1038 406 1014 l 501 1051 l 676 1093 l 711 1093 l 760 1111 l 763 1104 q 818 1107 786 1106 q 828 1113 824 1113 q 832 1110 831 1111 l 896 1110 l 1011 1076 q 1208 992 1113 1047 q 1250 976 1225 989 q 1269 940 1269 957 m 1144 904 l 1038 965 l 985 982 l 981 978 l 935 1000 l 783 1017 l 647 1000 l 467 944 q 331 861 418 918 q 161 674 189 739 q 146 652 160 669 q 132 629 132 635 l 132 600 l 107 524 l 107 357 l 132 182 q 138 161 132 174 q 143 143 143 149 q 235 -21 149 64 q 399 -117 317 -100 q 472 -146 422 -128 l 643 -171 l 779 -175 q 806 -164 783 -175 q 831 -156 814 -160 q 918 -119 864 -153 q 993 -60 967 -89 q 1004 -17 993 -60 l 965 290 l 925 290 l 788 265 l 713 247 l 708 251 l 635 235 l 540 226 q 496 240 506 226 q 483 283 492 246 l 525 438 l 556 635 l 539 682 l 539 689 l 581 753 q 613 761 592 754 l 624 751 l 632 756 l 643 747 l 679 761 l 751 761 q 756 765 757 761 q 761 769 756 769 l 933 769 l 1075 739 l 1144 904 z "},"D":{"ha":1381,"x_min":0,"x_max":1342,"o":"m 1342 589 l 1313 458 q 1272 325 1310 450 q 1218 196 1247 246 q 1153 117 1206 175 q 1063 33 1093 50 q 947 -53 1031 6 q 750 -154 888 -96 q 636 -193 708 -167 l 436 -232 q 419 -226 431 -232 l 357 -240 l 288 -274 q 272 -271 281 -271 q 260 -274 265 -271 l 246 -261 q 224 -252 235 -264 q 215 -229 214 -240 l 199 -44 l 0 996 l 40 1047 l 44 1043 l 111 1090 l 171 1078 l 282 1103 l 286 1099 l 358 1115 l 425 1103 l 585 1103 l 715 1090 l 865 1051 q 1154 940 983 1021 q 1239 868 1174 932 q 1300 776 1288 822 l 1342 632 l 1342 589 m 1236 585 q 1197 733 1239 619 q 1192 744 1196 736 l 1181 764 q 1117 835 1161 799 q 1035 886 1074 872 q 944 924 1026 889 q 867 954 871 954 l 843 954 l 763 981 l 756 976 l 707 997 l 703 990 l 422 1014 q 417 1018 417 1014 l 417 1018 q 411 1022 417 1022 l 306 1010 l 183 985 l 163 985 l 118 967 l 118 922 l 219 413 l 322 -146 l 551 -117 l 575 -108 l 581 -112 l 589 -104 l 593 -108 l 601 -101 l 608 -101 q 767 -43 663 -90 q 939 44 888 11 q 1119 211 1063 124 q 1208 442 1165 283 q 1232 531 1214 465 l 1236 585 m 886 686 l 861 614 l 861 593 l 853 340 q 804 292 840 289 l 779 283 l 739 300 l 732 296 l 724 306 l 690 300 l 542 322 l 424 322 q 389 371 389 349 l 401 425 l 401 454 l 431 632 q 429 708 429 657 q 471 757 432 738 l 538 790 l 724 747 l 728 753 l 747 743 l 753 747 l 796 739 l 833 743 q 881 718 860 743 q 886 686 886 710 m 764 642 l 711 664 l 690 664 q 651 675 696 664 q 643 664 649 676 l 624 682 l 542 682 l 511 556 l 494 419 l 746 390 l 764 642 z "},"E":{"ha":1197,"x_min":0,"x_max":1140,"o":"m 1140 1029 l 1111 965 l 1111 878 l 1119 776 q 1086 724 1113 735 l 1079 724 l 1054 715 q 1042 719 1046 715 l 829 636 l 829 614 l 986 614 q 1023 595 1007 614 q 1039 556 1039 576 l 1026 444 l 1035 389 q 1011 350 1024 365 q 992 345 1006 350 q 972 340 979 340 l 857 336 q 815 326 840 336 q 800 300 810 324 l 803 274 l 983 261 q 988 265 988 261 q 993 269 988 269 q 997 265 999 269 q 1001 261 996 261 l 1089 261 q 1124 213 1126 224 l 1086 57 l 1074 -32 l 1078 -132 q 1049 -176 1079 -156 q 996 -197 1019 -197 l 936 -185 l 743 -219 l 576 -219 q 567 -211 574 -218 l 558 -219 q 544 -211 554 -211 q 542 -215 540 -211 q 539 -219 544 -219 l 436 -219 l 383 -228 l 217 -253 l 133 -253 q 125 -265 125 -261 l 115 -257 l 86 -274 l 19 -257 l 14 -261 l 0 -225 l 0 -119 l 17 -69 l 17 -44 l 42 213 l 89 965 q 85 1013 82 983 q 118 1050 100 1022 q 138 1082 119 1067 q 169 1110 165 1106 q 188 1115 185 1115 l 225 1103 l 701 1115 l 810 1094 l 818 1103 l 824 1094 l 1029 1094 q 1042 1086 1033 1094 l 1054 1094 l 1078 1082 q 1090 1086 1083 1086 q 1140 1029 1135 1086 m 1013 1010 q 997 1001 1004 1001 q 983 1006 992 1001 q 969 1010 975 1010 q 968 1006 965 1010 q 965 1001 967 1003 l 663 1022 q 651 1031 651 1024 l 639 1022 l 619 1031 q 613 1022 619 1022 q 606 1026 607 1022 q 600 1031 606 1031 q 588 1027 594 1031 q 579 1024 581 1024 l 575 1026 q 565 1029 569 1026 l 561 1031 l 547 1022 l 546 1026 q 539 1031 544 1031 l 500 1031 l 488 1026 l 483 1029 q 471 1031 478 1031 q 461 1026 464 1031 q 456 1022 458 1022 l 292 1022 l 200 989 l 194 997 l 188 996 q 178 993 179 993 l 146 201 l 122 -44 l 122 -164 l 174 -164 l 181 -168 l 225 -156 l 293 -156 l 401 -135 l 432 -135 l 457 -126 l 497 -126 q 501 -122 501 -126 q 507 -118 501 -118 q 511 -122 513 -118 q 515 -126 510 -126 l 600 -118 q 658 -126 621 -118 q 668 -122 663 -126 q 679 -118 674 -118 q 687 -122 685 -118 q 694 -126 689 -126 q 703 -122 700 -126 q 711 -118 707 -118 q 722 -122 717 -118 q 731 -126 726 -126 q 744 -124 735 -126 q 758 -122 754 -122 l 772 -114 l 778 -118 l 950 -92 l 972 -24 l 1001 153 q 967 181 1004 167 l 843 189 l 794 176 l 790 181 l 747 164 l 743 168 l 735 160 q 735 165 733 161 q 731 168 736 168 q 690 211 690 168 l 699 300 q 697 347 700 315 q 736 411 693 394 q 760 421 754 418 l 813 419 l 886 425 q 922 465 922 428 l 926 510 q 900 531 926 531 l 760 518 q 739 531 754 518 q 724 549 724 543 l 724 571 l 711 661 q 718 694 711 685 q 747 717 725 703 q 776 732 769 732 q 797 728 794 732 l 868 763 l 872 757 l 1001 808 l 1013 1010 z "},"F":{"ha":1211,"x_min":89,"x_max":1153,"o":"m 1153 981 l 1140 921 l 1140 692 l 1108 635 l 1067 635 l 778 522 l 778 467 l 907 447 q 957 376 958 439 l 936 317 l 936 276 l 949 229 l 944 196 q 931 172 943 183 q 907 161 919 161 q 899 163 903 161 l 851 147 q 768 121 825 144 q 754 89 754 108 q 757 69 754 81 l 764 -90 q 761 -121 765 -110 q 739 -137 756 -139 l 685 -150 l 640 -146 q 619 -148 633 -146 q 599 -150 606 -150 l 519 -165 l 514 -161 l 379 -190 l 299 -225 l 221 -225 q 188 -183 188 -192 l 188 28 l 140 396 l 89 979 l 182 1051 q 186 1047 183 1051 q 194 1043 189 1043 l 231 1043 l 313 1051 q 319 1047 317 1051 q 326 1043 321 1043 q 334 1049 331 1043 q 343 1056 338 1056 l 382 1056 l 465 1075 l 471 1071 l 479 1079 l 776 1110 l 954 1107 l 1100 1115 q 1118 1061 1118 1096 q 1113 1038 1118 1047 l 1153 1014 l 1153 981 m 1039 924 l 1032 1014 l 800 1017 l 454 983 q 426 975 446 981 l 290 951 l 285 956 l 197 942 l 232 525 l 313 -110 l 590 -61 l 643 -61 q 657 -32 657 -49 l 657 93 q 651 110 657 99 q 646 125 646 121 q 672 194 638 183 q 715 207 683 199 l 808 226 q 836 264 821 239 l 840 344 q 829 366 839 356 q 810 375 819 376 l 699 371 q 675 401 689 371 q 672 481 682 422 l 657 569 q 718 622 665 621 l 783 635 l 888 667 q 1014 717 982 696 q 1029 753 1017 718 l 1039 924 z "},"G":{"ha":1385,"x_min":0,"x_max":1303,"o":"m 1303 924 l 1289 858 l 1188 576 l 1165 576 l 1089 617 l 763 617 q 685 569 701 617 l 665 457 l 678 414 l 747 414 l 751 422 q 756 435 756 429 l 756 465 q 759 481 756 471 q 763 493 763 490 q 775 549 763 529 q 808 570 779 556 q 844 585 836 585 l 1171 563 l 1225 571 q 1257 549 1236 568 q 1276 519 1278 529 l 1249 425 l 1226 -29 q 1226 -74 1226 -42 q 1211 -115 1226 -103 q 1158 -140 1192 -125 q 1144 -164 1153 -147 q 1068 -206 1119 -201 l 996 -228 l 974 -228 l 796 -264 q 771 -274 779 -265 q 758 -269 767 -274 q 746 -264 750 -264 q 742 -269 740 -264 q 738 -274 743 -274 l 706 -274 q 700 -269 700 -274 l 700 -269 q 694 -264 700 -264 q 690 -274 690 -264 l 676 -264 l 668 -274 q 640 -260 644 -260 l 578 -260 q 446 -228 542 -260 q 199 -92 308 -182 q 114 -15 160 -60 q 14 228 31 82 l 0 344 l 4 511 q 208 913 49 747 q 397 1046 257 963 q 456 1078 433 1067 q 518 1089 468 1078 l 556 1097 l 560 1093 l 681 1115 l 915 1115 l 1028 1079 q 1068 1071 1038 1079 l 1153 1047 q 1242 1017 1160 1046 q 1299 956 1294 993 l 1303 924 m 1208 942 l 1204 957 l 1036 999 l 1031 994 l 888 1025 l 843 1021 l 838 1029 l 743 1032 l 564 1017 q 460 983 525 1007 q 264 826 325 913 q 253 822 261 822 l 117 515 l 117 233 q 129 200 122 221 q 221 29 136 121 q 377 -92 296 -54 q 510 -139 458 -131 l 608 -165 l 822 -165 l 956 -129 l 1063 -75 l 1104 -75 l 1128 47 l 1132 286 l 1150 474 l 1007 486 l 906 478 q 867 453 875 475 q 858 403 864 444 l 863 363 q 847 308 865 333 q 800 283 829 283 l 778 283 l 679 324 l 582 347 q 551 361 567 344 q 535 393 535 378 l 535 429 l 579 560 q 600 640 586 579 q 611 685 601 658 q 639 706 618 694 q 669 715 660 717 l 836 701 q 853 711 840 701 l 863 701 l 892 711 q 924 701 910 700 l 1121 713 l 1126 707 l 1186 856 l 1208 942 z "},"H":{"ha":1501,"x_min":0,"x_max":1488,"o":"m 1488 1010 l 1465 924 l 1425 626 l 1403 189 l 1357 -154 l 1357 -228 q 1333 -254 1350 -237 q 1283 -274 1318 -258 l 1238 -256 l 732 -269 q 694 -189 694 -271 l 694 58 l 686 92 q 614 71 654 83 q 560 31 564 51 l 546 -135 l 568 -176 l 568 -218 q 542 -256 568 -240 q 496 -274 540 -257 l 481 -264 q 467 -274 471 -274 l 236 -257 l 113 -269 q 83 -262 124 -269 q 61 -226 61 -254 q 65 -201 61 -218 q 68 -176 68 -185 l 63 63 l 0 1026 l 103 1115 l 201 1093 l 404 1065 l 469 1040 l 560 1040 l 593 1025 l 633 1039 q 694 951 696 1033 l 713 821 l 758 686 l 826 700 l 926 736 l 944 736 q 960 783 965 754 l 988 951 q 1019 1006 985 981 q 1064 1025 1046 1025 q 1099 1011 1085 1025 l 1264 1043 l 1318 1043 l 1397 1079 q 1407 1071 1404 1069 q 1426 1079 1421 1079 l 1432 1079 q 1488 1010 1468 1079 m 1357 892 l 1357 957 q 1329 953 1333 957 l 1319 963 l 1192 944 q 1111 924 1183 940 q 1097 907 1108 921 q 1067 788 1096 896 q 1053 689 1051 732 q 1025 624 1053 660 l 958 628 l 860 606 l 856 610 l 701 557 q 667 567 688 560 q 640 599 640 582 l 640 644 l 594 847 q 585 907 592 872 q 494 944 574 931 l 300 979 l 100 979 l 186 -157 l 442 -157 l 456 129 l 532 175 l 568 175 l 733 228 q 779 208 761 228 q 799 161 797 189 l 813 -154 l 1235 -154 l 1281 -6 l 1343 819 l 1357 892 z "},"I":{"ha":1004,"x_min":0,"x_max":946,"o":"m 946 822 q 938 788 946 811 q 931 751 931 764 q 800 576 921 676 q 658 514 764 547 q 593 501 628 504 l 544 489 l 497 489 q 485 481 489 481 l 479 489 l 463 481 l 358 493 l 257 515 q 226 531 239 525 q 110 594 140 565 q 8 776 19 682 l 0 817 q 232 1033 64 957 q 385 1083 342 1083 l 439 1083 q 443 1088 444 1083 q 448 1092 442 1092 q 466 1094 454 1092 q 485 1096 478 1096 l 526 1096 l 567 1114 l 640 1096 l 675 1096 l 724 1083 q 789 1051 749 1074 q 868 983 847 1003 q 946 822 946 908 m 864 -169 l 824 -271 l 757 -271 l 707 -250 l 433 -250 l 424 -258 l 371 -249 l 281 -258 q 272 -262 278 -258 q 260 -267 265 -267 q 251 -262 257 -267 q 240 -258 246 -258 q 229 -267 229 -258 l 217 -258 l 63 -258 q 26 -240 44 -258 q 8 -203 7 -221 l 26 -147 l 100 382 q 111 410 99 401 q 158 432 143 432 l 181 432 q 203 426 188 432 q 228 419 219 419 l 471 397 q 473 393 476 397 q 475 389 469 389 l 579 385 q 589 393 586 385 l 592 401 l 668 401 l 864 -129 l 864 -169 m 833 814 q 801 897 833 851 q 739 961 774 938 q 732 972 736 965 q 657 1018 672 1018 l 575 1018 q 542 1026 558 1018 l 483 1036 l 449 1026 q 443 1024 446 1026 q 436 1022 440 1022 l 401 1022 q 367 1006 396 1019 q 176 900 242 972 q 149 876 165 892 q 113 797 113 826 q 204 642 113 722 q 247 613 214 633 q 286 593 279 593 q 293 596 293 593 q 293 601 292 600 l 371 567 l 464 567 l 468 571 q 471 575 465 575 q 481 569 478 575 q 485 563 483 563 l 571 575 l 671 615 q 817 764 801 683 q 826 790 818 769 q 833 814 833 810 m 725 -142 l 656 101 q 631 201 643 151 q 589 292 614 261 q 563 293 585 293 l 546 307 l 204 328 l 151 18 l 139 -146 l 149 -175 l 271 -175 l 575 -154 q 579 -161 579 -156 q 618 -167 594 -161 l 629 -158 q 653 -167 647 -167 q 656 -162 658 -167 q 657 -158 653 -158 q 667 -162 663 -158 q 675 -167 672 -167 q 725 -142 701 -164 z "},"J":{"ha":1233,"x_min":0,"x_max":1160,"o":"m 1160 207 l 1122 63 q 1108 56 1114 63 q 989 -94 1033 -60 q 936 -121 969 -103 q 818 -175 872 -164 l 763 -199 q 749 -201 758 -199 q 735 -203 739 -203 l 682 -222 l 678 -218 l 556 -254 l 393 -237 l 358 -226 l 338 -226 l 231 -199 q 139 -157 174 -183 q 125 -154 133 -156 q 33 -67 60 -115 q 8 13 29 -60 l 0 81 l 13 464 q 32 499 13 478 q 65 521 51 519 l 160 528 l 165 525 l 264 557 l 268 553 l 393 600 l 440 600 l 517 356 l 535 374 l 471 740 l 419 958 q 422 971 419 963 q 425 983 425 979 q 485 1013 450 997 l 615 1013 l 688 1040 l 692 1036 l 813 1067 l 950 1115 q 993 1096 986 1101 q 1015 1057 1014 1081 q 1006 1022 1015 1053 l 1124 556 l 1160 329 l 1160 207 m 1057 282 l 1049 393 l 1021 556 l 950 836 l 881 1004 l 688 957 l 683 961 l 643 949 l 624 949 q 543 928 638 949 q 535 914 540 924 l 621 447 l 653 361 l 653 342 l 606 296 l 596 304 l 485 253 l 453 253 q 421 271 428 253 q 388 379 400 324 q 372 449 383 403 q 340 506 358 506 l 283 486 l 263 486 l 188 465 q 144 449 185 465 q 118 374 142 439 l 107 57 q 281 -119 124 -93 l 311 -135 l 315 -132 l 489 -171 l 600 -171 l 711 -132 q 852 -82 779 -121 q 971 8 925 -43 q 1031 115 997 38 q 1053 190 1039 142 l 1057 282 z "},"K":{"ha":1229,"x_min":0,"x_max":1210,"o":"m 1210 251 q 1199 231 1210 246 q 1188 215 1188 217 q 1142 117 1154 154 q 1115 81 1131 103 q 1093 22 1108 60 q 1056 -35 1079 3 q 1025 -106 1038 -71 q 1006 -165 1021 -128 q 956 -190 996 -178 l 688 -64 l 674 -64 l 674 -157 l 686 -208 q 672 -236 682 -219 q 625 -269 658 -251 l 597 -274 l 497 -246 l 363 -246 l 339 -237 l 319 -246 l 292 -237 l 196 -237 l 157 -231 l 85 -226 l 10 -189 q 0 -165 7 -181 l 13 244 l 0 1026 l 79 1064 l 117 1064 l 140 1071 l 307 1088 l 415 1115 q 436 1092 431 1108 q 440 1065 438 1079 l 468 685 q 474 682 469 682 l 799 876 q 829 856 811 879 q 856 822 853 825 q 947 754 885 799 q 1006 732 968 749 q 1028 681 1015 725 l 917 506 l 1210 313 l 1210 251 m 1094 233 q 989 335 1081 276 l 831 435 q 808 440 822 436 q 793 458 801 446 l 793 478 l 908 658 l 769 765 l 446 560 l 429 560 l 403 575 q 394 574 399 574 q 375 588 382 574 l 364 610 q 372 644 364 618 l 361 978 q 354 982 361 988 q 356 994 356 988 q 351 1014 356 1004 q 343 1019 349 1015 l 289 1011 l 285 1015 l 142 996 q 79 969 79 981 l 88 875 l 88 -131 l 118 -131 l 121 -126 l 192 -154 l 567 -167 q 579 -154 567 -154 l 579 -74 l 551 -6 q 610 47 567 50 l 621 60 l 940 -71 l 1094 233 z "},"L":{"ha":1150,"x_min":0,"x_max":1121,"o":"m 1121 -157 q 1093 -212 1118 -175 q 1049 -235 1067 -235 q 1004 -226 1036 -235 l 957 -214 l 593 -239 l 528 -256 l 528 -247 l 504 -247 l 468 -261 l 363 -274 q 358 -269 358 -274 l 358 -269 q 353 -265 358 -265 l 261 -274 q 250 -269 254 -274 l 246 -265 l 201 -274 l 146 -261 l 69 -274 q 29 -256 68 -272 q 0 -222 6 -246 l 76 315 l 93 629 l 132 969 l 132 1033 q 154 1058 140 1043 q 210 1085 174 1068 l 269 1072 l 618 1094 l 688 1115 q 726 1067 729 1096 l 683 563 q 690 550 683 557 l 949 567 l 992 581 q 1032 524 1029 564 l 1065 124 l 1121 -157 m 989 -111 l 939 383 q 919 472 935 429 q 863 482 897 475 q 860 469 863 472 l 849 482 l 833 465 l 735 465 q 731 461 729 465 q 726 457 732 457 l 672 457 q 664 444 672 451 l 622 444 q 587 460 604 444 q 569 494 569 476 l 590 594 l 615 1000 l 447 1000 l 381 988 l 368 996 l 222 996 l 200 811 l 165 297 l 128 -4 l 128 -178 l 376 -178 l 447 -167 l 451 -171 l 482 -162 l 724 -146 q 728 -142 725 -146 q 736 -137 731 -137 q 744 -142 742 -137 q 751 -146 746 -146 q 763 -137 756 -144 l 919 -137 l 949 -121 q 960 -125 953 -125 q 989 -111 976 -125 z "},"M":{"ha":1718,"x_min":0,"x_max":1665,"o":"m 1665 -36 q 1660 -65 1663 -58 q 1636 -103 1653 -83 q 1597 -121 1617 -100 l 1513 -121 l 1478 -135 l 1471 -131 l 1399 -149 l 1190 -237 q 1149 -222 1172 -235 q 1106 -125 1138 -189 q 1056 -62 1088 -104 q 1031 -28 1050 -50 q 1026 -22 1031 -22 l 1004 -136 q 1008 -151 1008 -143 q 990 -196 1008 -171 q 953 -221 971 -221 l 833 -221 l 743 -269 q 724 -264 735 -261 q 703 -269 717 -265 q 674 -259 696 -269 q 649 -244 651 -249 q 575 -79 628 -160 q 529 -10 551 -43 l 508 -106 l 508 -142 q 510 -177 508 -154 q 513 -212 513 -200 q 479 -258 508 -221 q 460 -264 474 -258 q 442 -269 447 -269 q 419 -274 426 -269 l 356 -237 l 356 -242 q 349 -246 354 -246 q 340 -239 346 -244 q 306 -237 335 -237 l 71 -215 q 6 -183 33 -215 q 0 -158 6 -174 l 254 975 q 242 999 253 982 q 232 1022 232 1017 q 265 1069 232 1044 q 304 1088 289 1088 q 314 1085 310 1088 l 324 1093 q 336 1092 329 1092 q 369 1097 351 1092 l 390 1097 l 418 1107 l 449 1097 q 463 1107 457 1107 l 603 1096 l 793 1115 l 958 851 l 1083 1106 l 1329 1083 l 1463 1039 l 1522 1039 q 1537 1023 1524 1033 q 1550 1007 1550 1013 l 1550 925 q 1557 913 1551 922 q 1550 892 1550 903 q 1554 872 1550 882 l 1567 769 l 1567 699 l 1629 86 l 1665 -36 m 1536 -18 l 1447 904 q 1293 994 1443 950 l 1246 1008 l 1168 1008 q 1129 988 1144 1008 q 1069 864 1118 963 q 1033 788 1053 831 q 1032 756 1032 785 l 1032 707 l 1004 674 q 964 664 994 664 q 926 675 944 664 q 900 703 904 686 q 700 1008 853 878 l 614 1008 l 576 999 l 525 1004 l 364 990 q 344 975 357 990 l 147 38 l 131 -107 l 229 -131 q 241 -133 233 -131 q 253 -135 249 -135 l 390 -139 q 411 -111 408 -139 l 419 -39 q 426 -1 421 -31 q 431 36 431 21 q 425 78 431 54 q 443 140 418 106 q 497 174 468 174 q 560 132 528 174 q 608 64 576 108 q 738 -135 669 -15 l 808 -135 q 819 -126 818 -135 l 828 -135 l 842 -126 l 846 -131 l 906 -121 q 944 46 925 -61 q 951 103 944 67 q 994 156 967 131 l 1028 156 l 1238 -89 l 1279 -89 l 1332 -64 l 1467 -32 q 1507 -28 1486 -35 l 1536 -18 z "},"N":{"ha":1363,"x_min":8,"x_max":1288,"o":"m 1286 13 q 1275 -25 1288 -10 q 1244 -53 1272 -29 l 1203 -53 q 1056 -129 1153 -81 q 1036 -132 1050 -131 q 1028 -142 1033 -136 q 900 -207 950 -154 q 860 -240 886 -207 q 815 -274 835 -274 q 808 -269 810 -274 q 801 -265 807 -265 l 769 -265 q 738 -190 754 -251 q 704 -140 722 -169 q 629 -32 664 -74 l 549 65 q 546 67 547 67 q 543 61 543 67 l 543 -15 q 546 -43 543 -35 l 539 -54 l 539 -92 l 568 -161 q 554 -207 567 -175 q 513 -237 535 -237 l 488 -237 l 431 -217 l 357 -217 l 342 -208 l 338 -210 l 67 -237 l 39 -225 l 35 -229 l 8 -207 l 29 243 l 33 921 l 21 971 q 31 1003 22 981 q 113 1033 104 1033 l 197 1033 l 247 1050 l 257 1046 l 304 1061 l 349 1061 l 401 1078 l 431 1078 l 574 1107 q 583 1111 578 1107 q 594 1115 589 1115 q 607 1107 599 1115 l 615 1115 l 871 776 l 924 997 q 947 1040 925 1018 q 990 1061 969 1061 q 1011 1069 1003 1061 q 1056 1046 1014 1063 l 1169 1038 q 1176 1035 1175 1038 q 1181 1033 1178 1033 l 1257 1033 q 1278 994 1278 1013 l 1278 974 l 1269 782 l 1274 165 l 1286 13 m 1181 25 l 1168 717 l 1176 908 q 1167 941 1176 922 q 1144 960 1157 960 l 1101 960 l 1068 968 q 1026 953 1043 965 q 956 721 981 829 l 951 615 q 924 582 950 593 q 913 568 919 576 q 899 566 908 568 q 886 564 890 564 q 869 568 875 564 q 835 599 853 578 q 831 639 833 614 q 790 717 826 656 q 753 767 775 736 q 692 864 731 804 q 567 994 629 939 q 528 1004 556 1004 l 472 1004 q 464 1000 467 1004 q 456 996 461 996 q 438 1000 443 996 l 279 958 l 226 958 l 201 947 l 174 947 l 122 926 l 122 668 l 131 407 l 113 -128 l 444 -128 l 457 154 q 446 185 444 175 q 535 253 458 253 l 836 -135 l 904 -99 l 908 -103 l 1181 25 z "},"O":{"ha":1472,"x_min":0,"x_max":1407,"o":"m 1407 475 l 1401 282 q 1293 42 1369 158 q 1222 -37 1282 25 q 1174 -93 1197 -65 q 1115 -136 1143 -124 q 1097 -156 1111 -143 q 1011 -200 1065 -175 q 864 -246 978 -215 l 738 -264 q 727 -267 733 -264 q 717 -269 721 -269 l 556 -269 l 390 -219 q 83 7 175 -154 q 8 211 24 113 l 0 265 l 14 417 q 35 497 17 431 q 43 533 39 514 q 135 760 49 635 q 306 939 213 874 q 413 1011 332 958 q 501 1051 436 1026 q 667 1103 558 1067 l 672 1110 q 683 1115 676 1115 l 886 1107 q 939 1092 893 1107 q 1013 1069 996 1074 q 1025 1054 1017 1063 q 1081 1029 1046 1054 q 1253 882 1207 940 q 1304 803 1272 858 q 1354 719 1346 731 q 1353 714 1353 715 l 1393 582 l 1407 475 m 1300 318 l 1294 519 q 1122 854 1258 725 q 1017 939 1086 889 l 983 957 q 853 1013 878 1014 l 713 1006 l 708 1013 l 658 990 l 597 990 q 483 942 589 990 q 372 876 418 911 q 193 676 247 781 q 148 533 179 649 q 117 389 117 418 l 117 229 q 122 208 117 222 q 128 189 128 194 q 172 81 132 153 q 225 -3 204 25 q 292 -57 242 -24 q 385 -96 321 -76 q 394 -107 388 -100 q 572 -161 563 -161 q 591 -164 578 -161 q 610 -167 604 -167 l 790 -157 q 856 -142 808 -151 q 1151 22 1008 -117 q 1300 318 1304 169 m 992 715 q 983 699 992 711 q 975 679 975 686 q 978 640 978 651 l 978 135 l 918 75 l 606 169 l 600 164 l 529 186 l 525 182 l 471 200 l 417 200 l 389 244 l 469 524 l 482 606 l 578 749 l 583 744 l 596 758 l 672 744 l 788 767 l 835 765 l 864 771 l 944 781 q 992 715 992 760 m 878 521 l 871 618 q 813 668 867 668 l 757 668 l 725 656 l 699 656 l 618 628 l 581 628 q 589 614 589 622 q 585 599 589 608 q 581 586 581 590 l 518 321 q 533 294 513 307 l 564 281 l 690 244 l 694 249 l 725 236 l 779 222 q 786 220 782 222 q 793 218 790 218 l 861 218 l 878 521 z "},"P":{"ha":1392,"x_min":0,"x_max":1376,"o":"m 1376 692 q 1367 681 1376 689 l 1367 658 l 1363 628 q 1338 554 1338 554 q 1304 485 1321 508 q 1229 414 1278 447 l 1124 342 q 1010 278 1072 307 q 929 251 981 271 l 858 225 l 853 229 l 833 215 q 818 211 829 211 l 763 211 q 729 189 740 211 l 829 -126 l 829 -154 q 801 -185 822 -164 q 771 -190 793 -190 q 763 -188 768 -190 q 753 -186 757 -186 q 749 -190 749 -186 q 744 -194 750 -194 q 736 -188 740 -194 q 726 -182 732 -182 l 706 -182 l 531 -221 l 424 -221 q 414 -233 414 -228 l 207 -265 l 192 -256 q 168 -265 179 -265 l 133 -269 l 49 -251 l 49 -224 q 51 -210 49 -219 q 53 -197 53 -201 l 18 943 l 0 1004 q 33 1065 7 1050 q 72 1085 67 1085 l 229 1085 q 239 1089 233 1085 q 247 1089 242 1092 l 290 1103 l 339 1103 l 389 1115 l 596 1115 l 683 1103 l 736 1103 l 850 1085 l 1006 1046 q 1135 1007 1050 1035 q 1196 988 1150 1000 q 1261 942 1199 983 q 1371 733 1351 881 l 1376 692 m 1267 690 q 1207 851 1272 788 q 1051 940 1156 901 q 1029 950 1038 940 l 1019 940 l 872 993 l 793 993 q 786 1006 786 1001 l 724 1006 q 715 1013 714 1006 q 701 1014 708 1014 q 688 1011 694 1014 q 679 1015 683 1015 q 669 1011 674 1015 l 667 1006 l 650 1024 l 592 1024 l 588 1019 l 561 1028 l 431 1028 l 353 1015 l 346 1019 l 318 1011 l 313 1015 l 299 1006 l 197 1006 q 185 993 197 1000 l 110 993 l 149 -106 q 157 -147 147 -119 q 175 -172 163 -154 l 238 -172 q 276 -160 250 -172 l 294 -151 l 299 -156 l 474 -125 l 575 -125 l 671 -107 q 699 -82 686 -104 l 603 214 q 626 260 603 233 q 668 286 649 286 q 682 282 675 286 l 688 276 l 736 290 l 767 290 l 824 307 l 844 307 q 858 313 854 307 l 872 321 q 903 322 900 321 q 1092 419 1017 365 q 1125 436 1104 426 q 1147 458 1132 444 q 1263 619 1233 513 l 1267 690 m 860 508 q 848 472 865 492 q 814 451 831 451 l 714 451 l 640 435 q 619 421 626 435 l 583 421 l 526 408 l 504 408 l 442 382 l 419 390 l 413 386 l 375 443 l 389 493 l 389 528 l 393 656 q 421 703 404 671 q 485 744 476 744 q 502 742 490 744 q 519 740 514 740 l 614 757 l 669 757 l 753 796 l 781 796 q 811 761 808 772 q 811 751 813 757 q 808 743 808 746 l 808 664 l 860 508 m 733 540 l 713 656 q 697 692 706 692 q 643 686 703 692 l 638 692 l 604 669 q 592 679 601 669 l 514 635 l 489 625 l 489 496 l 547 496 q 556 498 550 496 q 565 500 563 500 l 644 521 q 659 524 650 521 q 671 526 668 526 l 733 540 z "},"Q":{"ha":1533,"x_min":4,"x_max":1492,"o":"m 1492 131 l 1092 -274 l 1074 -274 l 850 -112 l 694 -207 l 689 -201 l 656 -219 q 643 -224 653 -224 l 624 -224 l 574 -242 l 551 -242 l 488 -256 q 467 -246 483 -246 q 458 -249 464 -246 q 449 -251 451 -251 q 443 -247 443 -251 l 443 -246 q 438 -242 443 -242 l 369 -242 q 301 -224 361 -242 q 246 -197 282 -218 q 189 -169 210 -175 q 167 -151 185 -154 q 8 175 40 -29 l 4 278 l 54 479 q 358 919 129 781 q 443 979 399 953 q 578 1036 472 997 q 668 1067 660 1067 l 689 1067 l 732 1093 l 815 1093 l 911 1115 l 976 1097 l 1025 1097 l 1085 1075 q 1092 1079 1092 1075 q 1089 1074 1093 1078 l 1200 1013 l 1226 1013 q 1301 944 1257 993 q 1336 892 1311 935 q 1356 874 1343 886 q 1377 835 1368 853 q 1405 749 1386 818 q 1424 667 1424 681 l 1424 617 l 1317 306 q 1361 278 1329 294 q 1418 238 1378 264 q 1428 224 1421 232 q 1475 203 1443 214 q 1492 171 1492 183 l 1492 131 m 1353 149 l 1244 222 l 1213 226 l 1208 222 l 1179 265 l 1179 297 q 1208 344 1179 300 q 1240 396 1236 388 q 1281 501 1258 433 q 1308 608 1308 582 l 1308 671 l 1294 717 q 1057 982 1275 890 l 917 1013 l 908 1003 l 763 1003 l 757 1008 l 654 976 q 451 889 517 933 q 368 832 433 881 q 358 817 364 821 q 243 694 318 794 q 235 672 240 685 q 144 426 186 593 l 117 318 l 117 199 q 149 76 117 168 q 203 -25 161 40 q 372 -135 236 -78 l 538 -144 q 542 -140 539 -144 q 551 -135 546 -135 l 596 -135 q 661 -114 610 -135 q 726 -85 708 -96 q 797 -39 779 -54 q 817 -7 804 -25 q 878 26 836 4 l 1074 -135 l 1353 149 m 1022 372 q 981 311 1022 357 l 950 311 q 697 206 806 236 q 642 194 675 201 q 588 151 625 188 l 557 156 l 540 146 q 501 171 508 164 q 486 211 482 188 l 429 611 l 501 700 l 560 714 q 583 708 572 715 l 646 732 q 654 726 649 731 l 751 763 q 796 767 767 768 l 846 799 q 854 793 850 793 l 875 807 q 947 739 928 814 l 960 546 l 1022 372 m 889 389 l 853 533 l 839 649 q 824 686 839 674 q 806 678 815 678 l 699 651 q 631 636 682 647 q 618 625 626 632 q 582 618 615 624 q 572 607 579 614 q 540 574 547 600 l 576 331 q 581 299 579 311 q 601 276 586 281 l 618 285 l 622 281 l 889 389 z "},"R":{"ha":1372,"x_min":0,"x_max":1331,"o":"m 1331 726 l 1326 656 q 1269 485 1306 535 q 1197 399 1244 450 l 1114 307 l 1268 153 q 1232 93 1254 104 q 1217 90 1226 93 q 954 -168 1022 -81 q 928 -193 943 -176 q 908 -236 910 -232 q 879 -269 894 -261 l 829 -269 l 515 18 l 515 -147 q 510 -169 515 -160 q 486 -197 500 -179 q 457 -203 482 -203 q 418 -194 443 -203 l 339 -190 l 243 -203 l 181 -203 l 88 -219 q 47 -201 74 -212 q 35 -147 32 -178 q 38 -140 33 -144 q 42 -135 42 -136 q 33 -47 33 -90 l 21 938 l 0 975 q 26 1025 6 996 q 86 1054 49 1040 q 147 1078 143 1075 l 192 1061 l 264 1078 l 335 1078 l 439 1094 q 475 1115 479 1094 l 479 1108 q 494 1103 486 1103 l 717 1107 l 842 1086 q 863 1090 856 1086 l 872 1078 q 896 1082 881 1082 q 938 1061 906 1082 q 1092 997 1003 1046 q 1121 969 1108 988 q 1133 968 1125 969 q 1164 940 1143 958 q 1203 918 1178 933 q 1261 863 1224 900 q 1290 825 1268 850 q 1331 726 1306 799 m 1226 647 l 1226 718 q 1217 736 1226 724 q 1207 751 1207 749 q 1081 889 1199 796 q 938 969 1047 915 q 838 1000 885 996 q 820 1006 832 1000 q 804 1011 808 1011 l 726 1011 l 693 1019 l 603 1019 l 551 1028 l 443 1011 l 368 1011 l 343 999 l 289 999 l 264 990 l 224 990 q 190 982 219 990 l 139 957 l 113 957 l 133 311 l 129 57 l 158 -106 l 411 -94 l 432 82 q 429 113 432 83 q 429 147 426 144 q 485 192 464 192 l 521 192 l 850 -128 l 1135 146 l 976 282 l 981 310 q 1035 369 983 333 q 1054 376 1043 372 q 1094 413 1068 388 q 1129 451 1110 432 q 1210 592 1178 501 q 1226 647 1226 639 m 903 728 l 886 689 l 886 451 q 879 426 883 443 q 828 392 840 392 q 823 396 822 392 q 819 400 824 400 l 740 400 l 731 392 l 608 392 q 597 400 600 400 l 582 392 l 569 400 l 543 392 l 497 392 l 493 388 q 465 406 486 388 q 444 432 444 425 l 444 714 q 461 756 454 744 q 504 786 476 781 l 519 794 l 535 790 q 579 785 564 790 l 583 782 l 646 790 l 769 786 q 794 792 776 786 q 818 799 811 799 l 854 799 q 889 768 876 799 q 903 728 892 758 m 781 483 l 781 707 l 553 707 l 553 510 q 575 496 557 497 l 586 483 l 781 483 z "},"S":{"ha":1243,"x_min":0,"x_max":1194,"o":"m 1194 244 q 1136 58 1153 96 q 990 -133 1088 -51 q 975 -136 985 -135 q 942 -161 956 -154 q 819 -211 901 -176 q 800 -225 814 -217 q 683 -258 708 -258 l 638 -258 l 629 -265 l 403 -269 l 354 -250 l 339 -250 l 296 -235 l 292 -237 l 239 -214 q 121 -153 190 -192 q 89 -121 111 -142 q 22 -86 64 -110 q 8 -56 8 -75 q 25 -14 8 -39 q 69 22 43 -6 q 99 114 101 85 l 132 150 q 149 165 138 150 q 185 171 161 165 l 249 147 l 394 147 l 456 158 q 475 150 464 149 q 497 154 496 153 q 501 151 503 154 q 504 147 499 147 l 572 139 q 579 149 576 139 l 579 175 l 515 175 q 506 182 513 175 l 478 182 l 339 210 q 13 394 82 261 l 0 490 l 13 617 q 44 754 22 664 q 78 797 53 765 q 275 994 183 932 q 410 1056 310 1018 l 494 1088 l 538 1088 l 593 1113 l 814 1113 l 1085 1099 q 1118 1085 1099 1097 q 1131 1060 1122 1075 l 1099 815 l 1074 754 l 881 754 q 864 743 878 754 q 788 699 821 742 q 776 693 786 697 q 765 657 774 682 l 804 647 l 835 647 l 867 635 q 875 633 869 635 q 883 631 881 631 l 910 631 q 988 606 942 631 q 1047 560 1006 596 q 1086 546 1063 557 q 1163 379 1135 497 l 1194 244 m 1083 183 l 1083 264 l 1075 324 q 1046 431 1065 360 q 1000 463 1026 440 q 986 486 996 472 l 944 517 q 892 543 917 538 l 732 560 q 728 563 731 560 q 719 567 726 567 q 709 563 715 567 q 699 560 703 560 q 668 573 685 560 q 654 600 651 586 q 685 700 668 635 q 679 751 681 719 q 717 804 692 800 q 739 811 721 806 q 761 817 757 817 q 769 811 765 817 q 778 806 774 806 l 807 806 l 856 821 l 885 821 q 894 829 885 829 l 976 842 q 1006 850 999 850 q 1024 942 1024 949 l 1024 1011 l 661 1024 l 525 1004 l 410 964 q 314 918 376 964 q 144 749 197 832 q 119 696 133 732 q 103 640 103 656 l 96 458 q 350 297 113 367 l 403 282 l 501 265 q 503 269 503 265 q 510 274 504 274 q 513 269 515 274 q 515 265 511 265 l 639 265 q 643 269 643 265 q 649 274 643 274 q 681 254 664 274 q 699 219 699 235 q 683 181 699 215 q 665 133 668 142 q 657 67 665 107 q 613 24 638 24 q 588 32 600 24 l 578 28 l 521 64 l 478 64 l 469 56 l 236 64 q 192 49 199 65 q 176 43 185 47 q 143 -28 154 3 l 300 -139 l 304 -135 l 418 -167 l 422 -162 l 454 -175 l 529 -175 q 535 -171 535 -175 q 542 -167 536 -167 q 553 -171 546 -167 q 565 -175 561 -175 l 669 -162 l 736 -147 q 876 -86 829 -111 q 1000 13 963 -40 q 1018 29 1007 18 q 1054 100 1046 82 q 1076 172 1074 142 q 1083 183 1083 181 z "},"T":{"ha":1264,"x_min":-3,"x_max":1221,"o":"m 1221 660 q 1132 592 1217 603 q 1078 557 1114 579 q 1008 524 1018 528 q 949 482 963 499 l 974 386 l 1011 172 l 1011 0 l 1031 -33 l 1031 -67 q 1013 -97 1015 -93 q 983 -110 1001 -110 q 978 -108 978 -110 q 976 -106 978 -106 l 949 -111 l 914 -110 l 875 -118 l 868 -114 l 410 -228 l 368 -228 l 299 -253 l 282 -253 l 229 -269 l 224 -265 l 213 -274 q 176 -222 182 -271 l 197 -136 l 197 -111 l 214 589 l 158 589 l 133 581 q 125 585 131 581 l 93 564 l 39 564 q 10 587 24 564 q 0 625 -3 610 l 61 915 l 61 1007 l 157 1099 l 192 1099 l 203 1090 q 210 1099 200 1099 l 1038 1103 l 1110 1115 q 1142 1104 1125 1110 q 1163 1060 1161 1092 l 1179 949 l 1179 903 l 1196 764 l 1221 660 m 1101 699 l 1072 949 l 1056 1013 l 738 1010 l 733 1017 l 724 1008 l 707 1017 l 301 1004 l 253 988 l 217 988 l 213 992 l 165 971 l 119 676 l 185 676 l 233 688 l 263 696 l 281 692 q 324 672 313 693 q 333 636 326 668 l 313 443 l 313 -150 l 853 -24 l 885 -24 q 903 -17 892 -24 q 915 -24 910 -14 l 908 185 l 883 304 l 883 321 l 822 507 q 840 557 815 528 q 886 585 865 586 l 901 576 l 924 589 q 972 610 943 592 q 1018 638 1013 635 q 1088 668 1043 647 q 1101 699 1101 676 z "},"U":{"ha":1324,"x_min":4,"x_max":1258,"o":"m 1258 592 l 1250 376 l 1206 188 q 1156 36 1183 90 q 1061 -93 1124 -29 q 950 -185 1004 -151 l 760 -265 l 732 -265 q 728 -274 728 -265 l 704 -268 q 671 -269 696 -271 l 557 -265 q 549 -263 554 -265 q 540 -261 543 -261 l 472 -236 q 389 -204 429 -221 q 242 -107 336 -171 q 232 -93 238 -97 q 33 229 64 61 l 4 389 l 4 596 l 85 1000 q 92 1038 86 1010 q 85 1054 90 1043 q 156 1115 82 1115 l 239 1115 l 301 1086 q 315 1084 306 1086 q 331 1082 325 1082 l 403 1069 l 429 1057 l 440 1061 l 443 1057 q 453 1053 446 1053 q 457 1057 458 1053 q 461 1061 456 1061 q 467 1057 467 1061 q 471 1053 467 1053 l 490 1053 l 515 1044 l 538 1053 l 556 1039 q 563 1049 553 1049 q 565 1044 567 1049 q 568 1039 563 1039 l 596 1039 q 625 1018 614 1021 q 632 1000 632 1003 l 649 531 q 675 535 658 531 q 742 571 697 550 q 778 583 776 582 q 796 621 794 593 l 804 847 q 794 886 794 864 q 810 937 794 914 q 851 956 825 960 l 869 964 q 933 951 876 951 l 1099 951 l 1147 968 q 1156 970 1150 968 q 1164 972 1161 972 q 1203 941 1182 972 q 1225 890 1224 910 l 1238 828 l 1258 592 m 1157 608 l 1144 751 q 1063 871 1133 871 l 910 871 l 896 621 q 910 558 910 551 q 900 529 910 542 q 860 506 878 506 l 807 506 q 663 440 776 506 q 638 408 654 428 l 603 408 q 589 396 603 396 q 531 440 531 396 l 539 507 l 535 806 l 518 919 q 476 956 513 942 q 419 968 446 968 l 306 993 l 217 993 q 183 976 193 993 q 172 938 179 969 l 126 731 l 101 528 q 106 490 110 504 l 114 368 q 131 269 128 281 q 174 138 140 226 q 219 74 179 124 q 275 10 260 24 q 347 -49 310 -15 q 499 -137 418 -97 q 596 -168 560 -168 l 726 -168 l 799 -156 q 857 -119 818 -142 q 894 -108 872 -117 q 1082 115 1042 -8 q 1117 258 1083 118 q 1144 360 1124 285 l 1157 608 z "},"V":{"ha":1349,"x_min":0,"x_max":1313,"o":"m 1313 838 q 1301 790 1308 818 q 1264 753 1288 778 q 1193 600 1233 683 q 1046 218 1093 393 q 946 -51 990 75 q 888 -240 939 -71 q 875 -256 886 -249 q 856 -260 864 -262 l 807 -274 l 743 -246 l 668 -233 l 650 -242 q 635 -228 647 -240 l 542 -215 l 396 -215 l 318 -201 l 297 -146 l 297 -124 l 0 1006 l 126 1094 q 142 1100 139 1101 q 182 1083 176 1083 l 368 1083 q 373 1088 374 1083 q 378 1093 372 1093 l 438 1093 l 465 1101 l 542 1101 l 571 1111 q 586 1101 578 1111 l 596 1111 q 600 1101 596 1108 l 619 1111 l 676 1111 q 713 1078 683 1107 q 719 1050 719 1061 l 793 760 l 1035 1056 l 1076 1056 l 1313 838 m 1164 785 l 1164 808 l 1051 922 l 786 585 l 778 589 l 765 581 q 726 595 749 586 q 696 619 703 604 l 696 660 l 651 828 q 653 835 651 831 q 635 925 639 910 q 590 1001 618 979 q 556 1017 578 1007 l 532 1013 l 497 1013 q 478 1009 490 1013 q 460 1006 465 1006 q 463 1001 461 1006 q 456 999 463 999 q 450 1003 450 999 l 450 1003 q 444 1007 450 1007 l 285 1007 l 274 993 l 200 993 q 178 980 194 993 q 156 967 161 967 q 153 972 150 967 q 150 976 156 976 q 126 961 142 976 l 157 811 q 217 563 171 744 q 286 349 238 504 l 339 168 q 401 -60 378 36 q 451 -107 422 -83 l 582 -117 l 749 -143 l 767 -133 q 807 -122 800 -139 q 900 133 821 -89 q 1010 431 929 210 q 1093 640 1050 540 q 1164 785 1164 803 z "},"W":{"ha":1624,"x_min":0,"x_max":1554,"o":"m 1554 976 l 1488 724 l 1407 226 l 1407 186 l 1357 -150 q 1331 -190 1357 -169 q 1283 -211 1304 -211 l 1251 -211 l 1210 -197 l 1086 -211 l 975 -242 q 958 -249 971 -240 q 939 -256 946 -258 l 899 -274 l 876 -274 q 853 -254 860 -274 q 760 0 819 -157 l 657 -162 l 353 -162 l 297 -187 l 293 -183 l 276 -197 q 221 -182 256 -194 q 201 -151 207 -174 q 201 -117 196 -131 l 94 499 l 32 960 l 0 1038 l 17 1071 q 43 1097 31 1097 q 54 1096 49 1097 l 58 1093 l 136 1115 l 172 1115 l 200 1107 l 272 1107 q 294 1093 279 1093 l 353 1093 l 383 1111 q 419 1079 400 1097 q 519 860 469 993 l 601 643 q 624 618 607 629 l 646 719 q 706 783 660 781 q 728 793 735 793 q 733 788 733 793 q 739 783 733 783 l 772 783 l 915 811 l 954 824 l 969 819 q 979 826 975 819 q 989 833 983 833 l 1024 833 q 1082 808 1050 833 q 1096 782 1096 797 q 1094 756 1096 749 q 1104 726 1099 738 l 1206 1015 l 1233 1067 l 1285 1067 l 1324 1043 q 1342 1056 1328 1060 q 1372 1051 1353 1054 q 1378 1044 1368 1044 l 1418 1044 l 1468 1031 l 1507 1031 q 1535 1010 1518 1031 q 1554 976 1553 989 m 1425 928 q 1418 940 1425 922 q 1357 963 1378 963 l 1310 963 l 1165 547 q 1167 532 1167 540 q 1131 463 1167 479 q 1108 453 1124 457 l 1065 453 q 1035 494 1035 479 l 1026 585 l 1026 607 q 993 707 1026 649 q 953 721 985 721 l 938 731 q 932 721 938 721 l 858 721 l 783 708 q 758 696 764 708 q 700 514 729 632 l 700 472 q 689 440 700 458 q 665 421 678 421 l 586 421 q 569 433 579 425 q 563 469 568 447 q 476 657 539 518 q 392 882 454 718 q 356 946 367 931 q 301 990 336 969 q 246 1013 265 1011 l 179 1017 q 143 993 172 1017 q 139 981 139 990 l 296 38 q 339 -76 315 -76 q 341 -72 344 -76 q 343 -67 338 -67 l 560 -58 q 607 -47 588 -57 q 697 104 658 26 q 722 171 704 133 q 778 197 749 197 q 807 185 790 197 q 828 163 824 174 q 933 -119 876 8 q 964 -135 940 -135 l 1221 -94 q 1254 -56 1242 -87 q 1268 -3 1261 -40 l 1425 928 z "},"X":{"ha":1365,"x_min":0,"x_max":1321,"o":"m 1321 878 l 1103 418 l 1103 403 q 1267 304 1203 344 q 1278 283 1271 301 q 1286 257 1286 264 q 1261 208 1286 233 q 1215 171 1258 206 q 1136 63 1182 138 l 1072 -42 q 1027 -138 1044 -87 q 985 -197 1010 -189 l 958 -214 l 931 -210 l 638 -6 l 475 -129 l 471 -125 l 239 -274 q 183 -208 189 -264 l 13 124 l 286 440 l 0 801 l 0 828 q 100 944 17 849 q 146 997 113 958 q 193 1071 163 1017 q 226 1101 199 1086 q 271 1115 253 1115 q 317 1093 279 1115 l 714 757 l 1028 1090 l 1060 1090 l 1131 1031 l 1136 1035 l 1321 878 m 1185 838 q 1124 921 1181 879 q 1042 979 1094 943 l 776 675 l 758 638 q 706 617 736 624 l 685 625 q 651 642 661 628 q 642 679 647 650 q 571 754 640 683 q 532 793 557 768 l 497 814 q 349 939 447 857 q 318 950 336 943 q 271 1000 303 969 l 132 821 l 426 436 l 144 124 l 283 -137 l 669 136 l 931 -78 l 1142 238 l 1022 328 l 1014 322 q 967 361 972 329 l 1185 838 z "},"Y":{"ha":1261,"x_min":0,"x_max":1224,"o":"m 1224 731 l 936 350 l 957 181 l 965 -42 q 967 -57 965 -46 q 968 -74 968 -68 l 968 -135 l 993 -200 q 994 -210 994 -206 q 936 -274 994 -251 l 922 -265 l 913 -269 l 846 -237 l 833 -237 l 781 -225 l 738 -206 l 733 -210 l 636 -189 l 632 -193 l 592 -181 l 563 -181 l 503 -165 l 474 -165 l 311 -128 q 306 -130 310 -128 q 299 -132 303 -132 q 269 -118 292 -132 q 246 -99 247 -104 l 263 3 l 367 390 q 356 415 368 407 q 183 539 292 458 q 71 636 122 585 l 42 665 q 22 668 35 667 q 0 701 0 699 l 0 739 q 56 799 28 758 q 254 1018 126 869 q 300 1085 268 1040 q 328 1092 304 1089 q 339 1103 343 1103 l 347 1099 l 378 1107 l 410 1107 q 483 1068 414 1107 q 500 1047 489 1065 q 515 1044 506 1046 q 583 1000 539 1025 q 653 960 638 969 q 717 904 681 942 l 779 840 l 1076 1054 q 1100 1044 1082 1049 q 1126 975 1114 1022 q 1149 904 1139 924 q 1179 819 1164 858 q 1219 750 1199 799 l 1224 731 m 1101 729 l 1101 758 l 1036 933 l 1018 933 l 785 728 l 729 728 q 707 758 721 738 q 700 783 707 768 q 640 846 664 825 q 589 888 628 857 q 524 918 563 899 q 443 976 496 939 q 372 1006 390 1006 l 349 1006 l 121 733 l 485 428 l 364 90 l 351 -17 q 394 -47 349 -36 l 433 -64 l 439 -60 l 522 -81 l 547 -81 l 588 -92 l 619 -92 l 733 -117 l 738 -112 l 883 -144 l 872 153 l 851 301 l 832 367 l 832 390 q 860 436 832 408 q 882 446 869 440 q 1046 647 967 514 q 1081 694 1049 651 q 1101 729 1101 722 z "},"Z":{"ha":1053,"x_min":0,"x_max":997,"o":"m 996 254 l 843 -181 l 843 -244 l 828 -261 q 771 -274 811 -265 l 701 -247 l 686 -247 l 543 -228 l 536 -232 l 501 -224 l 464 -224 l 210 -201 q 199 -199 207 -201 q 186 -197 190 -197 l 51 -178 q 0 -118 6 -171 l 19 -72 l 19 -57 l 65 289 l 54 331 q 86 382 63 351 q 113 399 93 383 l 128 399 l 411 563 l 378 572 l 371 571 l 64 565 q 11 621 13 579 l 24 693 l 25 928 l 15 967 q 64 1015 31 1013 q 90 1015 86 1017 l 136 1053 q 163 1046 146 1051 l 244 1061 l 249 1057 l 301 1065 q 312 1069 306 1065 q 321 1072 318 1072 l 346 1068 l 429 1081 l 514 1081 l 710 1103 l 790 1103 l 860 1115 q 893 1095 878 1113 q 908 1060 908 1078 q 904 1043 908 1051 l 924 947 l 943 678 l 961 603 q 909 545 953 558 q 771 408 865 532 q 704 317 754 385 l 714 311 q 736 322 726 324 l 879 311 l 964 288 q 985 275 972 288 q 996 254 997 263 m 893 207 l 888 218 l 840 231 l 690 242 l 682 233 l 619 226 q 594 238 607 226 q 581 263 581 250 q 597 307 581 290 q 708 457 633 361 q 849 604 763 513 q 854 628 856 614 l 831 956 q 810 1021 828 985 q 782 1022 799 1022 l 768 1031 q 764 1026 767 1031 q 756 1022 761 1022 l 636 1022 l 317 992 q 315 988 313 992 q 311 983 317 983 l 278 983 q 261 968 264 969 q 253 976 253 968 l 165 942 l 118 942 l 118 654 l 481 654 q 485 649 486 653 q 489 646 485 646 l 511 646 q 515 649 517 646 q 519 653 514 653 l 563 653 q 592 628 578 653 q 596 603 592 619 l 593 575 q 540 546 561 543 l 163 310 l 150 221 l 124 63 l 114 -57 q 129 -89 111 -89 q 136 -86 138 -89 l 160 -97 l 164 -93 l 194 -104 l 401 -132 l 467 -132 l 501 -139 l 743 -154 q 750 -162 746 -154 l 761 -162 l 893 207 z "},"a":{"ha":1406,"x_min":0,"x_max":1356,"o":"m 1356 -28 q 1344 -67 1356 -46 q 1297 -85 1306 -85 l 1278 -85 l 875 -274 l 838 -274 q 807 -256 825 -274 q 793 -206 803 -250 l 697 -1 l 599 -1 q 556 -21 583 -1 q 538 -33 549 -24 q 483 -183 524 -65 q 485 -201 485 -190 q 451 -240 472 -214 l 408 -240 l 396 -224 l 371 -224 l 271 -194 q 253 -194 257 -197 q 249 -190 247 -190 l 211 -190 l 86 -147 l 53 -147 q 25 -129 44 -147 q 0 -101 6 -111 l 403 1029 l 403 1081 l 438 1099 l 486 1099 l 496 1111 q 510 1099 499 1110 l 585 1111 l 786 1113 l 907 1103 l 917 1111 l 933 1103 q 942 1101 936 1103 q 951 1099 949 1099 l 972 1099 l 1006 1090 q 1009 1094 1007 1090 q 1017 1099 1011 1099 q 1042 1083 1028 1099 q 1057 1057 1057 1068 l 1313 232 l 1333 47 l 1356 -28 m 1233 -4 l 1221 140 q 1215 169 1217 154 q 1164 394 1206 274 l 1089 614 q 1054 703 1089 615 q 972 979 1028 800 q 939 1018 960 993 l 863 1018 l 846 1026 l 836 1026 l 829 1018 q 794 1031 828 1031 l 563 1026 q 551 1018 560 1026 l 508 1018 q 497 1006 507 1015 q 475 1010 493 1010 l 131 -67 l 258 -106 l 296 -106 l 363 -122 q 378 -124 368 -122 q 392 -126 388 -126 l 457 14 l 457 35 q 489 72 457 46 q 535 100 521 97 l 568 88 l 624 88 l 656 100 l 661 96 l 732 138 l 757 124 q 781 82 775 111 l 906 -156 l 1233 -4 m 922 371 q 871 322 925 332 l 740 335 l 707 331 q 699 336 706 333 q 665 339 692 339 l 639 347 l 568 347 l 517 406 l 567 622 q 576 669 567 639 q 711 729 588 688 q 736 721 717 731 l 782 721 l 825 729 q 876 660 872 704 l 872 610 l 897 450 l 922 371 m 797 422 l 772 576 l 772 589 l 750 632 l 668 632 l 629 444 l 703 422 l 797 422 z "},"b":{"ha":1332,"x_min":3,"x_max":1275,"o":"m 1275 117 q 1243 24 1275 79 q 1197 -53 1229 -1 q 1178 -67 1190 -57 q 1099 -137 1153 -93 q 974 -208 1061 -161 q 864 -244 940 -226 l 811 -257 q 814 -251 814 -254 q 808 -249 813 -249 q 805 -253 803 -249 q 801 -257 807 -257 l 764 -257 l 756 -265 l 490 -265 l 482 -274 l 429 -257 l 428 -261 q 419 -265 425 -265 l 128 -243 l 106 -204 l 106 -165 l 50 713 l 21 926 l 3 986 l 3 1025 l 65 1072 l 133 1072 l 268 1103 l 331 1103 q 342 1107 338 1103 l 344 1111 l 639 1103 q 649 1107 643 1103 q 658 1111 654 1111 q 674 1107 664 1111 q 690 1103 685 1103 q 697 1107 696 1103 l 697 1111 l 768 1099 l 775 1103 l 785 1094 l 792 1099 l 1024 1022 q 1183 925 1115 992 q 1224 851 1197 911 q 1250 772 1250 792 l 1250 636 q 1246 621 1250 631 q 1242 607 1242 611 q 1178 458 1239 533 q 1076 338 1163 439 q 1154 299 1106 325 q 1206 251 1190 274 q 1275 117 1275 153 m 1174 100 q 1144 164 1174 124 q 1138 182 1142 171 l 1094 219 q 1050 246 1065 244 l 1040 254 l 974 254 q 945 269 957 254 q 933 300 933 283 q 961 363 933 328 q 976 369 968 365 q 1017 414 990 386 q 1103 515 1058 444 q 1153 636 1153 592 l 1153 733 q 1122 829 1153 775 q 1060 907 1094 879 q 935 960 1008 949 q 914 974 929 965 q 843 993 888 979 q 819 997 835 993 q 794 1001 803 1001 l 736 1018 l 728 1010 l 704 1035 l 553 1035 q 546 1031 546 1035 q 547 1026 546 1029 l 538 1035 q 524 1026 529 1026 l 490 1035 q 478 1031 488 1035 q 464 1026 469 1026 q 456 1031 458 1026 q 450 1035 454 1035 q 433 1031 444 1035 q 415 1026 421 1026 q 407 1031 410 1026 q 403 1035 404 1035 l 256 1018 l 225 1006 l 200 1006 l 118 971 l 156 686 l 190 251 l 207 -128 q 221 -153 207 -140 q 247 -168 235 -167 l 407 -181 l 756 -181 l 868 -151 q 885 -150 879 -151 q 1026 -79 999 -97 q 1149 49 1110 -28 q 1174 100 1174 97 m 844 450 q 833 418 839 435 q 804 393 822 394 l 483 401 q 440 421 461 401 q 418 450 422 435 l 464 683 l 469 776 q 525 843 476 781 q 557 853 538 846 l 678 828 q 685 826 679 828 q 694 824 692 824 l 731 824 l 756 811 q 813 788 790 813 q 836 750 824 769 l 824 657 l 824 489 l 844 450 m 789 44 q 739 6 774 6 l 667 -1 l 660 1 l 581 -11 l 535 -33 l 469 -33 q 436 -6 468 -32 q 389 204 421 64 l 464 292 l 471 288 l 485 300 l 522 292 l 667 292 q 669 287 669 290 q 675 283 669 283 q 685 288 681 283 q 694 292 690 292 q 735 276 725 285 q 760 253 744 268 l 760 201 l 789 44 m 725 478 l 725 725 q 690 747 721 733 l 633 761 q 613 749 619 761 l 575 749 l 536 518 q 588 486 535 494 l 638 478 l 725 478 m 679 100 q 657 199 679 147 q 622 213 651 213 l 550 213 l 494 194 l 539 64 l 635 81 l 656 81 q 671 88 663 81 q 679 100 679 94 z "},"c":{"ha":1322,"x_min":0,"x_max":1269,"o":"m 1269 940 q 1240 875 1269 938 q 1193 771 1228 849 q 1160 660 1185 742 q 1139 621 1156 646 q 1113 611 1131 611 l 1083 611 l 1022 667 l 917 683 l 733 683 q 653 624 665 683 q 644 578 651 615 l 603 342 q 613 325 603 325 q 615 329 618 325 q 618 333 613 333 q 624 329 624 333 q 625 325 624 325 l 674 338 l 678 333 l 779 358 l 810 358 l 994 401 q 1014 396 1001 400 q 1044 369 1021 392 q 1056 328 1054 332 q 1076 293 1065 299 l 1076 88 l 1128 -33 q 1115 -69 1128 -53 l 1092 -101 q 1015 -150 1063 -110 q 939 -207 956 -199 q 874 -237 922 -215 q 828 -257 860 -243 l 764 -265 l 758 -261 l 750 -269 l 664 -274 q 664 -268 663 -272 q 658 -265 664 -265 l 625 -265 l 458 -239 q 283 -182 403 -225 q 219 -144 271 -178 q 21 224 58 -42 l 0 369 l 17 588 q 224 872 93 757 q 232 888 229 876 q 382 997 293 936 q 479 1038 406 1014 l 501 1051 l 676 1093 l 711 1093 l 760 1111 l 763 1104 q 818 1107 786 1106 q 828 1113 824 1113 q 832 1110 831 1111 l 896 1110 l 1011 1076 q 1208 992 1113 1047 q 1250 976 1225 989 q 1269 940 1269 957 m 1144 904 l 1038 965 l 985 982 l 981 978 l 935 1000 l 783 1017 l 647 1000 l 467 944 q 331 861 418 918 q 161 674 189 739 q 146 652 160 669 q 132 629 132 635 l 132 600 l 107 524 l 107 357 l 132 182 q 138 161 132 174 q 143 143 143 149 q 235 -21 149 64 q 399 -117 317 -100 q 472 -146 422 -128 l 643 -171 l 779 -175 q 806 -164 783 -175 q 831 -156 814 -160 q 918 -119 864 -153 q 993 -60 967 -89 q 1004 -17 993 -60 l 965 290 l 925 290 l 788 265 l 713 247 l 708 251 l 635 235 l 540 226 q 496 240 506 226 q 483 283 492 246 l 525 438 l 556 635 l 539 682 l 539 689 l 581 753 q 613 761 592 754 l 624 751 l 632 756 l 643 747 l 679 761 l 751 761 q 756 765 757 761 q 761 769 756 769 l 933 769 l 1075 739 l 1144 904 z "},"d":{"ha":1381,"x_min":0,"x_max":1342,"o":"m 1342 589 l 1313 458 q 1272 325 1310 450 q 1218 196 1247 246 q 1153 117 1206 175 q 1063 33 1093 50 q 947 -53 1031 6 q 750 -154 888 -96 q 636 -193 708 -167 l 436 -232 q 419 -226 431 -232 l 357 -240 l 288 -274 q 272 -271 281 -271 q 260 -274 265 -271 l 246 -261 q 224 -252 235 -264 q 215 -229 214 -240 l 199 -44 l 0 996 l 40 1047 l 44 1043 l 111 1090 l 171 1078 l 282 1103 l 286 1099 l 358 1115 l 425 1103 l 585 1103 l 715 1090 l 865 1051 q 1154 940 983 1021 q 1239 868 1174 932 q 1300 776 1288 822 l 1342 632 l 1342 589 m 1236 585 q 1197 733 1239 619 q 1192 744 1196 736 l 1181 764 q 1117 835 1161 799 q 1035 886 1074 872 q 944 924 1026 889 q 867 954 871 954 l 843 954 l 763 981 l 756 976 l 707 997 l 703 990 l 422 1014 q 417 1018 417 1014 l 417 1018 q 411 1022 417 1022 l 306 1010 l 183 985 l 163 985 l 118 967 l 118 922 l 219 413 l 322 -146 l 551 -117 l 575 -108 l 581 -112 l 589 -104 l 593 -108 l 601 -101 l 608 -101 q 767 -43 663 -90 q 939 44 888 11 q 1119 211 1063 124 q 1208 442 1165 283 q 1232 531 1214 465 l 1236 585 m 886 686 l 861 614 l 861 593 l 853 340 q 804 292 840 289 l 779 283 l 739 300 l 732 296 l 724 306 l 690 300 l 542 322 l 424 322 q 389 371 389 349 l 401 425 l 401 454 l 431 632 q 429 708 429 657 q 471 757 432 738 l 538 790 l 724 747 l 728 753 l 747 743 l 753 747 l 796 739 l 833 743 q 881 718 860 743 q 886 686 886 710 m 764 642 l 711 664 l 690 664 q 651 675 696 664 q 643 664 649 676 l 624 682 l 542 682 l 511 556 l 494 419 l 746 390 l 764 642 z "},"e":{"ha":1197,"x_min":0,"x_max":1140,"o":"m 1140 1029 l 1111 965 l 1111 878 l 1119 776 q 1086 724 1113 735 l 1079 724 l 1054 715 q 1042 719 1046 715 l 829 636 l 829 614 l 986 614 q 1023 595 1007 614 q 1039 556 1039 576 l 1026 444 l 1035 389 q 1011 350 1024 365 q 992 345 1006 350 q 972 340 979 340 l 857 336 q 815 326 840 336 q 800 300 810 324 l 803 274 l 983 261 q 988 265 988 261 q 993 269 988 269 q 997 265 999 269 q 1001 261 996 261 l 1089 261 q 1124 213 1126 224 l 1086 57 l 1074 -32 l 1078 -132 q 1049 -176 1079 -156 q 996 -197 1019 -197 l 936 -185 l 743 -219 l 576 -219 q 567 -211 574 -218 l 558 -219 q 544 -211 554 -211 q 542 -215 540 -211 q 539 -219 544 -219 l 436 -219 l 383 -228 l 217 -253 l 133 -253 q 125 -265 125 -261 l 115 -257 l 86 -274 l 19 -257 l 14 -261 l 0 -225 l 0 -119 l 17 -69 l 17 -44 l 42 213 l 89 965 q 85 1013 82 983 q 118 1050 100 1022 q 138 1082 119 1067 q 169 1110 165 1106 q 188 1115 185 1115 l 225 1103 l 701 1115 l 810 1094 l 818 1103 l 824 1094 l 1029 1094 q 1042 1086 1033 1094 l 1054 1094 l 1078 1082 q 1090 1086 1083 1086 q 1140 1029 1135 1086 m 1013 1010 q 997 1001 1004 1001 q 983 1006 992 1001 q 969 1010 975 1010 q 968 1006 965 1010 q 965 1001 967 1003 l 663 1022 q 651 1031 651 1024 l 639 1022 l 619 1031 q 613 1022 619 1022 q 606 1026 607 1022 q 600 1031 606 1031 q 588 1027 594 1031 q 579 1024 581 1024 l 575 1026 q 565 1029 569 1026 l 561 1031 l 547 1022 l 546 1026 q 539 1031 544 1031 l 500 1031 l 488 1026 l 483 1029 q 471 1031 478 1031 q 461 1026 464 1031 q 456 1022 458 1022 l 292 1022 l 200 989 l 194 997 l 188 996 q 178 993 179 993 l 146 201 l 122 -44 l 122 -164 l 174 -164 l 181 -168 l 225 -156 l 293 -156 l 401 -135 l 432 -135 l 457 -126 l 497 -126 q 501 -122 501 -126 q 507 -118 501 -118 q 511 -122 513 -118 q 515 -126 510 -126 l 600 -118 q 658 -126 621 -118 q 668 -122 663 -126 q 679 -118 674 -118 q 687 -122 685 -118 q 694 -126 689 -126 q 703 -122 700 -126 q 711 -118 707 -118 q 722 -122 717 -118 q 731 -126 726 -126 q 744 -124 735 -126 q 758 -122 754 -122 l 772 -114 l 778 -118 l 950 -92 l 972 -24 l 1001 153 q 967 181 1004 167 l 843 189 l 794 176 l 790 181 l 747 164 l 743 168 l 735 160 q 735 165 733 161 q 731 168 736 168 q 690 211 690 168 l 699 300 q 697 347 700 315 q 736 411 693 394 q 760 421 754 418 l 813 419 l 886 425 q 922 465 922 428 l 926 510 q 900 531 926 531 l 760 518 q 739 531 754 518 q 724 549 724 543 l 724 571 l 711 661 q 718 694 711 685 q 747 717 725 703 q 776 732 769 732 q 797 728 794 732 l 868 763 l 872 757 l 1001 808 l 1013 1010 z "},"f":{"ha":1211,"x_min":89,"x_max":1153,"o":"m 1153 981 l 1140 921 l 1140 692 l 1108 635 l 1067 635 l 778 522 l 778 467 l 907 447 q 957 376 958 439 l 936 317 l 936 276 l 949 229 l 944 196 q 931 172 943 183 q 907 161 919 161 q 899 163 903 161 l 851 147 q 768 121 825 144 q 754 89 754 108 q 757 69 754 81 l 764 -90 q 761 -121 765 -110 q 739 -137 756 -139 l 685 -150 l 640 -146 q 619 -148 633 -146 q 599 -150 606 -150 l 519 -165 l 514 -161 l 379 -190 l 299 -225 l 221 -225 q 188 -183 188 -192 l 188 28 l 140 396 l 89 979 l 182 1051 q 186 1047 183 1051 q 194 1043 189 1043 l 231 1043 l 313 1051 q 319 1047 317 1051 q 326 1043 321 1043 q 334 1049 331 1043 q 343 1056 338 1056 l 382 1056 l 465 1075 l 471 1071 l 479 1079 l 776 1110 l 954 1107 l 1100 1115 q 1118 1061 1118 1096 q 1113 1038 1118 1047 l 1153 1014 l 1153 981 m 1039 924 l 1032 1014 l 800 1017 l 454 983 q 426 975 446 981 l 290 951 l 285 956 l 197 942 l 232 525 l 313 -110 l 590 -61 l 643 -61 q 657 -32 657 -49 l 657 93 q 651 110 657 99 q 646 125 646 121 q 672 194 638 183 q 715 207 683 199 l 808 226 q 836 264 821 239 l 840 344 q 829 366 839 356 q 810 375 819 376 l 699 371 q 675 401 689 371 q 672 481 682 422 l 657 569 q 718 622 665 621 l 783 635 l 888 667 q 1014 717 982 696 q 1029 753 1017 718 l 1039 924 z "},"g":{"ha":1385,"x_min":0,"x_max":1303,"o":"m 1303 924 l 1289 858 l 1188 576 l 1165 576 l 1089 617 l 763 617 q 685 569 701 617 l 665 457 l 678 414 l 747 414 l 751 422 q 756 435 756 429 l 756 465 q 759 481 756 471 q 763 493 763 490 q 775 549 763 529 q 808 570 779 556 q 844 585 836 585 l 1171 563 l 1225 571 q 1257 549 1236 568 q 1276 519 1278 529 l 1249 425 l 1226 -29 q 1226 -74 1226 -42 q 1211 -115 1226 -103 q 1158 -140 1192 -125 q 1144 -164 1153 -147 q 1068 -206 1119 -201 l 996 -228 l 974 -228 l 796 -264 q 771 -274 779 -265 q 758 -269 767 -274 q 746 -264 750 -264 q 742 -269 740 -264 q 738 -274 743 -274 l 706 -274 q 700 -269 700 -274 l 700 -269 q 694 -264 700 -264 q 690 -274 690 -264 l 676 -264 l 668 -274 q 640 -260 644 -260 l 578 -260 q 446 -228 542 -260 q 199 -92 308 -182 q 114 -15 160 -60 q 14 228 31 82 l 0 344 l 4 511 q 208 913 49 747 q 397 1046 257 963 q 456 1078 433 1067 q 518 1089 468 1078 l 556 1097 l 560 1093 l 681 1115 l 915 1115 l 1028 1079 q 1068 1071 1038 1079 l 1153 1047 q 1242 1017 1160 1046 q 1299 956 1294 993 l 1303 924 m 1208 942 l 1204 957 l 1036 999 l 1031 994 l 888 1025 l 843 1021 l 838 1029 l 743 1032 l 564 1017 q 460 983 525 1007 q 264 826 325 913 q 253 822 261 822 l 117 515 l 117 233 q 129 200 122 221 q 221 29 136 121 q 377 -92 296 -54 q 510 -139 458 -131 l 608 -165 l 822 -165 l 956 -129 l 1063 -75 l 1104 -75 l 1128 47 l 1132 286 l 1150 474 l 1007 486 l 906 478 q 867 453 875 475 q 858 403 864 444 l 863 363 q 847 308 865 333 q 800 283 829 283 l 778 283 l 679 324 l 582 347 q 551 361 567 344 q 535 393 535 378 l 535 429 l 579 560 q 600 640 586 579 q 611 685 601 658 q 639 706 618 694 q 669 715 660 717 l 836 701 q 853 711 840 701 l 863 701 l 892 711 q 924 701 910 700 l 1121 713 l 1126 707 l 1186 856 l 1208 942 z "},"h":{"ha":1501,"x_min":0,"x_max":1488,"o":"m 1488 1010 l 1465 924 l 1425 626 l 1403 189 l 1357 -154 l 1357 -228 q 1333 -254 1350 -237 q 1283 -274 1318 -258 l 1238 -256 l 732 -269 q 694 -189 694 -271 l 694 58 l 686 92 q 614 71 654 83 q 560 31 564 51 l 546 -135 l 568 -176 l 568 -218 q 542 -256 568 -240 q 496 -274 540 -257 l 481 -264 q 467 -274 471 -274 l 236 -257 l 113 -269 q 83 -262 124 -269 q 61 -226 61 -254 q 65 -201 61 -218 q 68 -176 68 -185 l 63 63 l 0 1026 l 103 1115 l 201 1093 l 404 1065 l 469 1040 l 560 1040 l 593 1025 l 633 1039 q 694 951 696 1033 l 713 821 l 758 686 l 826 700 l 926 736 l 944 736 q 960 783 965 754 l 988 951 q 1019 1006 985 981 q 1064 1025 1046 1025 q 1099 1011 1085 1025 l 1264 1043 l 1318 1043 l 1397 1079 q 1407 1071 1404 1069 q 1426 1079 1421 1079 l 1432 1079 q 1488 1010 1468 1079 m 1357 892 l 1357 957 q 1329 953 1333 957 l 1319 963 l 1192 944 q 1111 924 1183 940 q 1097 907 1108 921 q 1067 788 1096 896 q 1053 689 1051 732 q 1025 624 1053 660 l 958 628 l 860 606 l 856 610 l 701 557 q 667 567 688 560 q 640 599 640 582 l 640 644 l 594 847 q 585 907 592 872 q 494 944 574 931 l 300 979 l 100 979 l 186 -157 l 442 -157 l 456 129 l 532 175 l 568 175 l 733 228 q 779 208 761 228 q 799 161 797 189 l 813 -154 l 1235 -154 l 1281 -6 l 1343 819 l 1357 892 z "},"i":{"ha":1004,"x_min":0,"x_max":946,"o":"m 946 822 q 938 788 946 811 q 931 751 931 764 q 800 576 921 676 q 658 514 764 547 q 593 501 628 504 l 544 489 l 497 489 q 485 481 489 481 l 479 489 l 463 481 l 358 493 l 257 515 q 226 531 239 525 q 110 594 140 565 q 8 776 19 682 l 0 817 q 232 1033 64 957 q 385 1083 342 1083 l 439 1083 q 443 1088 444 1083 q 448 1092 442 1092 q 466 1094 454 1092 q 485 1096 478 1096 l 526 1096 l 567 1114 l 640 1096 l 675 1096 l 724 1083 q 789 1051 749 1074 q 868 983 847 1003 q 946 822 946 908 m 864 -169 l 824 -271 l 757 -271 l 707 -250 l 433 -250 l 424 -258 l 371 -249 l 281 -258 q 272 -262 278 -258 q 260 -267 265 -267 q 251 -262 257 -267 q 240 -258 246 -258 q 229 -267 229 -258 l 217 -258 l 63 -258 q 26 -240 44 -258 q 8 -203 7 -221 l 26 -147 l 100 382 q 111 410 99 401 q 158 432 143 432 l 181 432 q 203 426 188 432 q 228 419 219 419 l 471 397 q 473 393 476 397 q 475 389 469 389 l 579 385 q 589 393 586 385 l 592 401 l 668 401 l 864 -129 l 864 -169 m 833 814 q 801 897 833 851 q 739 961 774 938 q 732 972 736 965 q 657 1018 672 1018 l 575 1018 q 542 1026 558 1018 l 483 1036 l 449 1026 q 443 1024 446 1026 q 436 1022 440 1022 l 401 1022 q 367 1006 396 1019 q 176 900 242 972 q 149 876 165 892 q 113 797 113 826 q 204 642 113 722 q 247 613 214 633 q 286 593 279 593 q 293 596 293 593 q 293 601 292 600 l 371 567 l 464 567 l 468 571 q 471 575 465 575 q 481 569 478 575 q 485 563 483 563 l 571 575 l 671 615 q 817 764 801 683 q 826 790 818 769 q 833 814 833 810 m 725 -142 l 656 101 q 631 201 643 151 q 589 292 614 261 q 563 293 585 293 l 546 307 l 204 328 l 151 18 l 139 -146 l 149 -175 l 271 -175 l 575 -154 q 579 -161 579 -156 q 618 -167 594 -161 l 629 -158 q 653 -167 647 -167 q 656 -162 658 -167 q 657 -158 653 -158 q 667 -162 663 -158 q 675 -167 672 -167 q 725 -142 701 -164 z "},"j":{"ha":1233,"x_min":0,"x_max":1160,"o":"m 1160 207 l 1122 63 q 1108 56 1114 63 q 989 -94 1033 -60 q 936 -121 969 -103 q 818 -175 872 -164 l 763 -199 q 749 -201 758 -199 q 735 -203 739 -203 l 682 -222 l 678 -218 l 556 -254 l 393 -237 l 358 -226 l 338 -226 l 231 -199 q 139 -157 174 -183 q 125 -154 133 -156 q 33 -67 60 -115 q 8 13 29 -60 l 0 81 l 13 464 q 32 499 13 478 q 65 521 51 519 l 160 528 l 165 525 l 264 557 l 268 553 l 393 600 l 440 600 l 517 356 l 535 374 l 471 740 l 419 958 q 422 971 419 963 q 425 983 425 979 q 485 1013 450 997 l 615 1013 l 688 1040 l 692 1036 l 813 1067 l 950 1115 q 993 1096 986 1101 q 1015 1057 1014 1081 q 1006 1022 1015 1053 l 1124 556 l 1160 329 l 1160 207 m 1057 282 l 1049 393 l 1021 556 l 950 836 l 881 1004 l 688 957 l 683 961 l 643 949 l 624 949 q 543 928 638 949 q 535 914 540 924 l 621 447 l 653 361 l 653 342 l 606 296 l 596 304 l 485 253 l 453 253 q 421 271 428 253 q 388 379 400 324 q 372 449 383 403 q 340 506 358 506 l 283 486 l 263 486 l 188 465 q 144 449 185 465 q 118 374 142 439 l 107 57 q 281 -119 124 -93 l 311 -135 l 315 -132 l 489 -171 l 600 -171 l 711 -132 q 852 -82 779 -121 q 971 8 925 -43 q 1031 115 997 38 q 1053 190 1039 142 l 1057 282 z "},"k":{"ha":1229,"x_min":0,"x_max":1210,"o":"m 1210 251 q 1199 231 1210 246 q 1188 215 1188 217 q 1142 117 1154 154 q 1115 81 1131 103 q 1093 22 1108 60 q 1056 -35 1079 3 q 1025 -106 1038 -71 q 1006 -165 1021 -128 q 956 -190 996 -178 l 688 -64 l 674 -64 l 674 -157 l 686 -208 q 672 -236 682 -219 q 625 -269 658 -251 l 597 -274 l 497 -246 l 363 -246 l 339 -237 l 319 -246 l 292 -237 l 196 -237 l 157 -231 l 85 -226 l 10 -189 q 0 -165 7 -181 l 13 244 l 0 1026 l 79 1064 l 117 1064 l 140 1071 l 307 1088 l 415 1115 q 436 1092 431 1108 q 440 1065 438 1079 l 468 685 q 474 682 469 682 l 799 876 q 829 856 811 879 q 856 822 853 825 q 947 754 885 799 q 1006 732 968 749 q 1028 681 1015 725 l 917 506 l 1210 313 l 1210 251 m 1094 233 q 989 335 1081 276 l 831 435 q 808 440 822 436 q 793 458 801 446 l 793 478 l 908 658 l 769 765 l 446 560 l 429 560 l 403 575 q 394 574 399 574 q 375 588 382 574 l 364 610 q 372 644 364 618 l 361 978 q 354 982 361 988 q 356 994 356 988 q 351 1014 356 1004 q 343 1019 349 1015 l 289 1011 l 285 1015 l 142 996 q 79 969 79 981 l 88 875 l 88 -131 l 118 -131 l 121 -126 l 192 -154 l 567 -167 q 579 -154 567 -154 l 579 -74 l 551 -6 q 610 47 567 50 l 621 60 l 940 -71 l 1094 233 z "},"l":{"ha":1150,"x_min":0,"x_max":1121,"o":"m 1121 -157 q 1093 -212 1118 -175 q 1049 -235 1067 -235 q 1004 -226 1036 -235 l 957 -214 l 593 -239 l 528 -256 l 528 -247 l 504 -247 l 468 -261 l 363 -274 q 358 -269 358 -274 l 358 -269 q 353 -265 358 -265 l 261 -274 q 250 -269 254 -274 l 246 -265 l 201 -274 l 146 -261 l 69 -274 q 29 -256 68 -272 q 0 -222 6 -246 l 76 315 l 93 629 l 132 969 l 132 1033 q 154 1058 140 1043 q 210 1085 174 1068 l 269 1072 l 618 1094 l 688 1115 q 726 1067 729 1096 l 683 563 q 690 550 683 557 l 949 567 l 992 581 q 1032 524 1029 564 l 1065 124 l 1121 -157 m 989 -111 l 939 383 q 919 472 935 429 q 863 482 897 475 q 860 469 863 472 l 849 482 l 833 465 l 735 465 q 731 461 729 465 q 726 457 732 457 l 672 457 q 664 444 672 451 l 622 444 q 587 460 604 444 q 569 494 569 476 l 590 594 l 615 1000 l 447 1000 l 381 988 l 368 996 l 222 996 l 200 811 l 165 297 l 128 -4 l 128 -178 l 376 -178 l 447 -167 l 451 -171 l 482 -162 l 724 -146 q 728 -142 725 -146 q 736 -137 731 -137 q 744 -142 742 -137 q 751 -146 746 -146 q 763 -137 756 -144 l 919 -137 l 949 -121 q 960 -125 953 -125 q 989 -111 976 -125 z "},"m":{"ha":1718,"x_min":0,"x_max":1665,"o":"m 1665 -36 q 1660 -65 1663 -58 q 1636 -103 1653 -83 q 1597 -121 1617 -100 l 1513 -121 l 1478 -135 l 1471 -131 l 1399 -149 l 1190 -237 q 1149 -222 1172 -235 q 1106 -125 1138 -189 q 1056 -62 1088 -104 q 1031 -28 1050 -50 q 1026 -22 1031 -22 l 1004 -136 q 1008 -151 1008 -143 q 990 -196 1008 -171 q 953 -221 971 -221 l 833 -221 l 743 -269 q 724 -264 735 -261 q 703 -269 717 -265 q 674 -259 696 -269 q 649 -244 651 -249 q 575 -79 628 -160 q 529 -10 551 -43 l 508 -106 l 508 -142 q 510 -177 508 -154 q 513 -212 513 -200 q 479 -258 508 -221 q 460 -264 474 -258 q 442 -269 447 -269 q 419 -274 426 -269 l 356 -237 l 356 -242 q 349 -246 354 -246 q 340 -239 346 -244 q 306 -237 335 -237 l 71 -215 q 6 -183 33 -215 q 0 -158 6 -174 l 254 975 q 242 999 253 982 q 232 1022 232 1017 q 265 1069 232 1044 q 304 1088 289 1088 q 314 1085 310 1088 l 324 1093 q 336 1092 329 1092 q 369 1097 351 1092 l 390 1097 l 418 1107 l 449 1097 q 463 1107 457 1107 l 603 1096 l 793 1115 l 958 851 l 1083 1106 l 1329 1083 l 1463 1039 l 1522 1039 q 1537 1023 1524 1033 q 1550 1007 1550 1013 l 1550 925 q 1557 913 1551 922 q 1550 892 1550 903 q 1554 872 1550 882 l 1567 769 l 1567 699 l 1629 86 l 1665 -36 m 1536 -18 l 1447 904 q 1293 994 1443 950 l 1246 1008 l 1168 1008 q 1129 988 1144 1008 q 1069 864 1118 963 q 1033 788 1053 831 q 1032 756 1032 785 l 1032 707 l 1004 674 q 964 664 994 664 q 926 675 944 664 q 900 703 904 686 q 700 1008 853 878 l 614 1008 l 576 999 l 525 1004 l 364 990 q 344 975 357 990 l 147 38 l 131 -107 l 229 -131 q 241 -133 233 -131 q 253 -135 249 -135 l 390 -139 q 411 -111 408 -139 l 419 -39 q 426 -1 421 -31 q 431 36 431 21 q 425 78 431 54 q 443 140 418 106 q 497 174 468 174 q 560 132 528 174 q 608 64 576 108 q 738 -135 669 -15 l 808 -135 q 819 -126 818 -135 l 828 -135 l 842 -126 l 846 -131 l 906 -121 q 944 46 925 -61 q 951 103 944 67 q 994 156 967 131 l 1028 156 l 1238 -89 l 1279 -89 l 1332 -64 l 1467 -32 q 1507 -28 1486 -35 l 1536 -18 z "},"n":{"ha":1363,"x_min":8,"x_max":1288,"o":"m 1286 13 q 1275 -25 1288 -10 q 1244 -53 1272 -29 l 1203 -53 q 1056 -129 1153 -81 q 1036 -132 1050 -131 q 1028 -142 1033 -136 q 900 -207 950 -154 q 860 -240 886 -207 q 815 -274 835 -274 q 808 -269 810 -274 q 801 -265 807 -265 l 769 -265 q 738 -190 754 -251 q 704 -140 722 -169 q 629 -32 664 -74 l 549 65 q 546 67 547 67 q 543 61 543 67 l 543 -15 q 546 -43 543 -35 l 539 -54 l 539 -92 l 568 -161 q 554 -207 567 -175 q 513 -237 535 -237 l 488 -237 l 431 -217 l 357 -217 l 342 -208 l 338 -210 l 67 -237 l 39 -225 l 35 -229 l 8 -207 l 29 243 l 33 921 l 21 971 q 31 1003 22 981 q 113 1033 104 1033 l 197 1033 l 247 1050 l 257 1046 l 304 1061 l 349 1061 l 401 1078 l 431 1078 l 574 1107 q 583 1111 578 1107 q 594 1115 589 1115 q 607 1107 599 1115 l 615 1115 l 871 776 l 924 997 q 947 1040 925 1018 q 990 1061 969 1061 q 1011 1069 1003 1061 q 1056 1046 1014 1063 l 1169 1038 q 1176 1035 1175 1038 q 1181 1033 1178 1033 l 1257 1033 q 1278 994 1278 1013 l 1278 974 l 1269 782 l 1274 165 l 1286 13 m 1181 25 l 1168 717 l 1176 908 q 1167 941 1176 922 q 1144 960 1157 960 l 1101 960 l 1068 968 q 1026 953 1043 965 q 956 721 981 829 l 951 615 q 924 582 950 593 q 913 568 919 576 q 899 566 908 568 q 886 564 890 564 q 869 568 875 564 q 835 599 853 578 q 831 639 833 614 q 790 717 826 656 q 753 767 775 736 q 692 864 731 804 q 567 994 629 939 q 528 1004 556 1004 l 472 1004 q 464 1000 467 1004 q 456 996 461 996 q 438 1000 443 996 l 279 958 l 226 958 l 201 947 l 174 947 l 122 926 l 122 668 l 131 407 l 113 -128 l 444 -128 l 457 154 q 446 185 444 175 q 535 253 458 253 l 836 -135 l 904 -99 l 908 -103 l 1181 25 z "},"o":{"ha":1472,"x_min":0,"x_max":1407,"o":"m 1407 475 l 1401 282 q 1293 42 1369 158 q 1222 -37 1282 25 q 1174 -93 1197 -65 q 1115 -136 1143 -124 q 1097 -156 1111 -143 q 1011 -200 1065 -175 q 864 -246 978 -215 l 738 -264 q 727 -267 733 -264 q 717 -269 721 -269 l 556 -269 l 390 -219 q 83 7 175 -154 q 8 211 24 113 l 0 265 l 14 417 q 35 497 17 431 q 43 533 39 514 q 135 760 49 635 q 306 939 213 874 q 413 1011 332 958 q 501 1051 436 1026 q 667 1103 558 1067 l 672 1110 q 683 1115 676 1115 l 886 1107 q 939 1092 893 1107 q 1013 1069 996 1074 q 1025 1054 1017 1063 q 1081 1029 1046 1054 q 1253 882 1207 940 q 1304 803 1272 858 q 1354 719 1346 731 q 1353 714 1353 715 l 1393 582 l 1407 475 m 1300 318 l 1294 519 q 1122 854 1258 725 q 1017 939 1086 889 l 983 957 q 853 1013 878 1014 l 713 1006 l 708 1013 l 658 990 l 597 990 q 483 942 589 990 q 372 876 418 911 q 193 676 247 781 q 148 533 179 649 q 117 389 117 418 l 117 229 q 122 208 117 222 q 128 189 128 194 q 172 81 132 153 q 225 -3 204 25 q 292 -57 242 -24 q 385 -96 321 -76 q 394 -107 388 -100 q 572 -161 563 -161 q 591 -164 578 -161 q 610 -167 604 -167 l 790 -157 q 856 -142 808 -151 q 1151 22 1008 -117 q 1300 318 1304 169 m 992 715 q 983 699 992 711 q 975 679 975 686 q 978 640 978 651 l 978 135 l 918 75 l 606 169 l 600 164 l 529 186 l 525 182 l 471 200 l 417 200 l 389 244 l 469 524 l 482 606 l 578 749 l 583 744 l 596 758 l 672 744 l 788 767 l 835 765 l 864 771 l 944 781 q 992 715 992 760 m 878 521 l 871 618 q 813 668 867 668 l 757 668 l 725 656 l 699 656 l 618 628 l 581 628 q 589 614 589 622 q 585 599 589 608 q 581 586 581 590 l 518 321 q 533 294 513 307 l 564 281 l 690 244 l 694 249 l 725 236 l 779 222 q 786 220 782 222 q 793 218 790 218 l 861 218 l 878 521 z "},"p":{"ha":1392,"x_min":0,"x_max":1376,"o":"m 1376 692 q 1367 681 1376 689 l 1367 658 l 1363 628 q 1338 554 1338 554 q 1304 485 1321 508 q 1229 414 1278 447 l 1124 342 q 1010 278 1072 307 q 929 251 981 271 l 858 225 l 853 229 l 833 215 q 818 211 829 211 l 763 211 q 729 189 740 211 l 829 -126 l 829 -154 q 801 -185 822 -164 q 771 -190 793 -190 q 763 -188 768 -190 q 753 -186 757 -186 q 749 -190 749 -186 q 744 -194 750 -194 q 736 -188 740 -194 q 726 -182 732 -182 l 706 -182 l 531 -221 l 424 -221 q 414 -233 414 -228 l 207 -265 l 192 -256 q 168 -265 179 -265 l 133 -269 l 49 -251 l 49 -224 q 51 -210 49 -219 q 53 -197 53 -201 l 18 943 l 0 1004 q 33 1065 7 1050 q 72 1085 67 1085 l 229 1085 q 239 1089 233 1085 q 247 1089 242 1092 l 290 1103 l 339 1103 l 389 1115 l 596 1115 l 683 1103 l 736 1103 l 850 1085 l 1006 1046 q 1135 1007 1050 1035 q 1196 988 1150 1000 q 1261 942 1199 983 q 1371 733 1351 881 l 1376 692 m 1267 690 q 1207 851 1272 788 q 1051 940 1156 901 q 1029 950 1038 940 l 1019 940 l 872 993 l 793 993 q 786 1006 786 1001 l 724 1006 q 715 1013 714 1006 q 701 1014 708 1014 q 688 1011 694 1014 q 679 1015 683 1015 q 669 1011 674 1015 l 667 1006 l 650 1024 l 592 1024 l 588 1019 l 561 1028 l 431 1028 l 353 1015 l 346 1019 l 318 1011 l 313 1015 l 299 1006 l 197 1006 q 185 993 197 1000 l 110 993 l 149 -106 q 157 -147 147 -119 q 175 -172 163 -154 l 238 -172 q 276 -160 250 -172 l 294 -151 l 299 -156 l 474 -125 l 575 -125 l 671 -107 q 699 -82 686 -104 l 603 214 q 626 260 603 233 q 668 286 649 286 q 682 282 675 286 l 688 276 l 736 290 l 767 290 l 824 307 l 844 307 q 858 313 854 307 l 872 321 q 903 322 900 321 q 1092 419 1017 365 q 1125 436 1104 426 q 1147 458 1132 444 q 1263 619 1233 513 l 1267 690 m 860 508 q 848 472 865 492 q 814 451 831 451 l 714 451 l 640 435 q 619 421 626 435 l 583 421 l 526 408 l 504 408 l 442 382 l 419 390 l 413 386 l 375 443 l 389 493 l 389 528 l 393 656 q 421 703 404 671 q 485 744 476 744 q 502 742 490 744 q 519 740 514 740 l 614 757 l 669 757 l 753 796 l 781 796 q 811 761 808 772 q 811 751 813 757 q 808 743 808 746 l 808 664 l 860 508 m 733 540 l 713 656 q 697 692 706 692 q 643 686 703 692 l 638 692 l 604 669 q 592 679 601 669 l 514 635 l 489 625 l 489 496 l 547 496 q 556 498 550 496 q 565 500 563 500 l 644 521 q 659 524 650 521 q 671 526 668 526 l 733 540 z "},"q":{"ha":1533,"x_min":4,"x_max":1492,"o":"m 1492 131 l 1092 -274 l 1074 -274 l 850 -112 l 694 -207 l 689 -201 l 656 -219 q 643 -224 653 -224 l 624 -224 l 574 -242 l 551 -242 l 488 -256 q 467 -246 483 -246 q 458 -249 464 -246 q 449 -251 451 -251 q 443 -247 443 -251 l 443 -246 q 438 -242 443 -242 l 369 -242 q 301 -224 361 -242 q 246 -197 282 -218 q 189 -169 210 -175 q 167 -151 185 -154 q 8 175 40 -29 l 4 278 l 54 479 q 358 919 129 781 q 443 979 399 953 q 578 1036 472 997 q 668 1067 660 1067 l 689 1067 l 732 1093 l 815 1093 l 911 1115 l 976 1097 l 1025 1097 l 1085 1075 q 1092 1079 1092 1075 q 1089 1074 1093 1078 l 1200 1013 l 1226 1013 q 1301 944 1257 993 q 1336 892 1311 935 q 1356 874 1343 886 q 1377 835 1368 853 q 1405 749 1386 818 q 1424 667 1424 681 l 1424 617 l 1317 306 q 1361 278 1329 294 q 1418 238 1378 264 q 1428 224 1421 232 q 1475 203 1443 214 q 1492 171 1492 183 l 1492 131 m 1353 149 l 1244 222 l 1213 226 l 1208 222 l 1179 265 l 1179 297 q 1208 344 1179 300 q 1240 396 1236 388 q 1281 501 1258 433 q 1308 608 1308 582 l 1308 671 l 1294 717 q 1057 982 1275 890 l 917 1013 l 908 1003 l 763 1003 l 757 1008 l 654 976 q 451 889 517 933 q 368 832 433 881 q 358 817 364 821 q 243 694 318 794 q 235 672 240 685 q 144 426 186 593 l 117 318 l 117 199 q 149 76 117 168 q 203 -25 161 40 q 372 -135 236 -78 l 538 -144 q 542 -140 539 -144 q 551 -135 546 -135 l 596 -135 q 661 -114 610 -135 q 726 -85 708 -96 q 797 -39 779 -54 q 817 -7 804 -25 q 878 26 836 4 l 1074 -135 l 1353 149 m 1022 372 q 981 311 1022 357 l 950 311 q 697 206 806 236 q 642 194 675 201 q 588 151 625 188 l 557 156 l 540 146 q 501 171 508 164 q 486 211 482 188 l 429 611 l 501 700 l 560 714 q 583 708 572 715 l 646 732 q 654 726 649 731 l 751 763 q 796 767 767 768 l 846 799 q 854 793 850 793 l 875 807 q 947 739 928 814 l 960 546 l 1022 372 m 889 389 l 853 533 l 839 649 q 824 686 839 674 q 806 678 815 678 l 699 651 q 631 636 682 647 q 618 625 626 632 q 582 618 615 624 q 572 607 579 614 q 540 574 547 600 l 576 331 q 581 299 579 311 q 601 276 586 281 l 618 285 l 622 281 l 889 389 z "},"r":{"ha":1372,"x_min":0,"x_max":1331,"o":"m 1331 726 l 1326 656 q 1269 485 1306 535 q 1197 399 1244 450 l 1114 307 l 1268 153 q 1232 93 1254 104 q 1217 90 1226 93 q 954 -168 1022 -81 q 928 -193 943 -176 q 908 -236 910 -232 q 879 -269 894 -261 l 829 -269 l 515 18 l 515 -147 q 510 -169 515 -160 q 486 -197 500 -179 q 457 -203 482 -203 q 418 -194 443 -203 l 339 -190 l 243 -203 l 181 -203 l 88 -219 q 47 -201 74 -212 q 35 -147 32 -178 q 38 -140 33 -144 q 42 -135 42 -136 q 33 -47 33 -90 l 21 938 l 0 975 q 26 1025 6 996 q 86 1054 49 1040 q 147 1078 143 1075 l 192 1061 l 264 1078 l 335 1078 l 439 1094 q 475 1115 479 1094 l 479 1108 q 494 1103 486 1103 l 717 1107 l 842 1086 q 863 1090 856 1086 l 872 1078 q 896 1082 881 1082 q 938 1061 906 1082 q 1092 997 1003 1046 q 1121 969 1108 988 q 1133 968 1125 969 q 1164 940 1143 958 q 1203 918 1178 933 q 1261 863 1224 900 q 1290 825 1268 850 q 1331 726 1306 799 m 1226 647 l 1226 718 q 1217 736 1226 724 q 1207 751 1207 749 q 1081 889 1199 796 q 938 969 1047 915 q 838 1000 885 996 q 820 1006 832 1000 q 804 1011 808 1011 l 726 1011 l 693 1019 l 603 1019 l 551 1028 l 443 1011 l 368 1011 l 343 999 l 289 999 l 264 990 l 224 990 q 190 982 219 990 l 139 957 l 113 957 l 133 311 l 129 57 l 158 -106 l 411 -94 l 432 82 q 429 113 432 83 q 429 147 426 144 q 485 192 464 192 l 521 192 l 850 -128 l 1135 146 l 976 282 l 981 310 q 1035 369 983 333 q 1054 376 1043 372 q 1094 413 1068 388 q 1129 451 1110 432 q 1210 592 1178 501 q 1226 647 1226 639 m 903 728 l 886 689 l 886 451 q 879 426 883 443 q 828 392 840 392 q 823 396 822 392 q 819 400 824 400 l 740 400 l 731 392 l 608 392 q 597 400 600 400 l 582 392 l 569 400 l 543 392 l 497 392 l 493 388 q 465 406 486 388 q 444 432 444 425 l 444 714 q 461 756 454 744 q 504 786 476 781 l 519 794 l 535 790 q 579 785 564 790 l 583 782 l 646 790 l 769 786 q 794 792 776 786 q 818 799 811 799 l 854 799 q 889 768 876 799 q 903 728 892 758 m 781 483 l 781 707 l 553 707 l 553 510 q 575 496 557 497 l 586 483 l 781 483 z "},"s":{"ha":1243,"x_min":0,"x_max":1194,"o":"m 1194 244 q 1136 58 1153 96 q 990 -133 1088 -51 q 975 -136 985 -135 q 942 -161 956 -154 q 819 -211 901 -176 q 800 -225 814 -217 q 683 -258 708 -258 l 638 -258 l 629 -265 l 403 -269 l 354 -250 l 339 -250 l 296 -235 l 292 -237 l 239 -214 q 121 -153 190 -192 q 89 -121 111 -142 q 22 -86 64 -110 q 8 -56 8 -75 q 25 -14 8 -39 q 69 22 43 -6 q 99 114 101 85 l 132 150 q 149 165 138 150 q 185 171 161 165 l 249 147 l 394 147 l 456 158 q 475 150 465 149 q 497 154 496 154 q 501 151 503 154 q 504 147 499 147 l 572 139 q 579 149 576 139 l 579 175 l 515 175 q 506 182 513 175 l 478 182 l 339 210 q 13 394 82 261 l 0 490 l 13 617 q 44 754 22 664 q 78 797 53 765 q 275 994 183 932 q 410 1056 310 1018 l 494 1088 l 538 1088 l 593 1113 l 814 1113 l 1085 1099 q 1118 1085 1099 1097 q 1131 1060 1122 1075 l 1099 815 l 1074 754 l 881 754 q 864 743 878 754 q 788 699 821 742 q 776 693 786 697 q 765 657 774 682 l 804 647 l 835 647 l 867 635 q 875 633 869 635 q 883 631 881 631 l 910 631 q 988 606 942 631 q 1047 560 1006 596 q 1086 546 1063 557 q 1163 379 1135 497 l 1194 244 m 1083 183 l 1083 264 l 1075 324 q 1046 431 1065 360 q 1000 463 1026 440 q 986 486 996 472 l 944 517 q 892 543 917 538 l 732 560 q 728 563 731 560 q 719 567 726 567 q 709 563 715 567 q 699 560 703 560 q 668 573 685 560 q 654 600 651 586 q 685 700 668 635 q 679 751 681 719 q 717 804 692 800 q 739 811 721 806 q 761 817 757 817 q 769 811 765 817 q 778 806 774 806 l 807 806 l 856 821 l 885 821 q 894 829 885 829 l 976 842 q 1006 850 999 850 q 1024 942 1024 949 l 1024 1011 l 661 1024 l 525 1004 l 410 964 q 314 918 376 964 q 144 749 197 832 q 119 696 133 732 q 103 640 103 656 l 96 458 q 350 297 113 367 l 403 282 l 501 265 q 503 269 503 265 q 510 274 504 274 q 513 269 515 274 q 515 265 511 265 l 639 265 q 643 269 643 265 q 649 274 643 274 q 681 254 664 274 q 699 219 699 235 q 683 181 699 215 q 665 133 668 142 q 657 67 665 107 q 613 24 638 24 q 588 32 600 24 l 578 28 l 521 64 l 478 64 l 469 56 l 236 64 q 192 49 199 65 q 176 43 185 47 q 143 -28 154 3 l 300 -139 l 304 -135 l 418 -167 l 422 -162 l 454 -175 l 529 -175 q 535 -171 535 -175 q 542 -167 536 -167 q 553 -171 546 -167 q 565 -175 561 -175 l 669 -162 l 736 -147 q 876 -86 829 -111 q 1000 13 963 -40 q 1018 29 1007 18 q 1054 100 1046 82 q 1076 172 1074 142 q 1083 183 1083 181 z "},"t":{"ha":1264,"x_min":-3,"x_max":1221,"o":"m 1221 660 q 1132 592 1217 603 q 1078 557 1114 579 q 1008 524 1018 528 q 949 482 963 499 l 974 386 l 1011 172 l 1011 0 l 1031 -33 l 1031 -67 q 1013 -97 1015 -93 q 983 -110 1001 -110 q 978 -108 978 -110 q 976 -106 978 -106 l 949 -111 l 914 -110 l 875 -118 l 868 -114 l 410 -228 l 368 -228 l 299 -253 l 282 -253 l 229 -269 l 224 -265 l 213 -274 q 176 -222 182 -271 l 197 -136 l 197 -111 l 214 589 l 158 589 l 133 581 q 125 585 131 581 l 93 564 l 39 564 q 10 587 24 564 q 0 625 -3 610 l 61 915 l 61 1007 l 157 1099 l 192 1099 l 203 1090 q 210 1099 200 1099 l 1038 1103 l 1110 1115 q 1142 1104 1125 1110 q 1163 1060 1161 1092 l 1179 949 l 1179 903 l 1196 764 l 1221 660 m 1101 699 l 1072 949 l 1056 1013 l 738 1010 l 733 1017 l 724 1008 l 707 1017 l 301 1004 l 253 988 l 217 988 l 213 992 l 165 971 l 119 676 l 185 676 l 233 688 l 263 696 l 281 692 q 324 672 313 693 q 333 636 326 668 l 313 443 l 313 -150 l 853 -24 l 885 -24 q 903 -17 892 -24 q 915 -24 910 -14 l 908 185 l 883 304 l 883 321 l 822 507 q 840 557 815 528 q 886 585 865 586 l 901 576 l 924 589 q 972 610 943 592 q 1018 638 1013 635 q 1088 668 1043 647 q 1101 699 1101 676 z "},"u":{"ha":1324,"x_min":4,"x_max":1258,"o":"m 1258 592 l 1250 376 l 1206 188 q 1156 36 1183 90 q 1061 -93 1124 -29 q 950 -185 1004 -151 l 760 -265 l 732 -265 q 728 -274 728 -265 l 704 -268 q 671 -269 696 -271 l 557 -265 q 549 -263 554 -265 q 540 -261 543 -261 l 472 -236 q 389 -204 429 -221 q 242 -107 336 -171 q 232 -93 238 -97 q 33 229 64 61 l 4 389 l 4 596 l 85 1000 q 92 1038 86 1010 q 85 1054 90 1043 q 156 1115 82 1115 l 239 1115 l 301 1086 q 315 1084 306 1086 q 331 1082 325 1082 l 403 1069 l 429 1057 l 440 1061 l 443 1057 q 453 1053 446 1053 q 457 1057 458 1053 q 461 1061 456 1061 q 467 1057 467 1061 q 471 1053 467 1053 l 490 1053 l 515 1044 l 538 1053 l 556 1039 q 563 1049 553 1049 q 565 1044 567 1049 q 568 1039 563 1039 l 596 1039 q 625 1018 614 1021 q 632 1000 632 1003 l 649 531 q 675 535 658 531 q 742 571 697 550 q 778 583 776 582 q 796 621 794 593 l 804 847 q 794 886 794 864 q 810 937 794 914 q 851 956 825 960 l 869 964 q 933 951 876 951 l 1099 951 l 1147 968 q 1156 970 1150 968 q 1164 972 1161 972 q 1203 941 1182 972 q 1225 890 1224 910 l 1238 828 l 1258 592 m 1157 608 l 1144 751 q 1063 871 1133 871 l 910 871 l 896 621 q 910 558 910 551 q 900 529 910 542 q 860 506 878 506 l 807 506 q 663 440 776 506 q 638 408 654 428 l 603 408 q 589 396 603 396 q 531 440 531 396 l 539 507 l 535 806 l 518 919 q 476 956 513 942 q 419 968 446 968 l 306 993 l 217 993 q 183 976 193 993 q 172 938 179 969 l 126 731 l 101 528 q 106 490 110 504 l 114 368 q 131 269 128 281 q 174 138 140 226 q 219 74 179 124 q 275 10 260 24 q 347 -49 310 -15 q 499 -137 418 -97 q 596 -168 560 -168 l 726 -168 l 799 -156 q 857 -119 818 -142 q 894 -108 872 -117 q 1082 115 1042 -8 q 1117 258 1083 118 q 1144 360 1124 285 l 1157 608 z "},"v":{"ha":1349,"x_min":0,"x_max":1313,"o":"m 1313 838 q 1301 790 1308 818 q 1264 753 1288 778 q 1193 600 1233 683 q 1046 218 1093 393 q 946 -51 990 75 q 888 -240 939 -71 q 875 -256 886 -249 q 856 -260 864 -262 l 807 -274 l 743 -246 l 668 -233 l 650 -242 q 635 -228 647 -240 l 542 -215 l 396 -215 l 318 -201 l 297 -146 l 297 -124 l 0 1006 l 126 1094 q 142 1100 139 1101 q 182 1083 176 1083 l 368 1083 q 373 1088 374 1083 q 378 1093 372 1093 l 438 1093 l 465 1101 l 542 1101 l 571 1111 q 586 1101 578 1111 l 596 1111 q 600 1101 596 1108 l 619 1111 l 676 1111 q 713 1078 683 1107 q 719 1050 719 1061 l 793 760 l 1035 1056 l 1076 1056 l 1313 838 m 1164 785 l 1164 808 l 1051 922 l 786 585 l 778 589 l 765 581 q 726 595 749 586 q 696 619 703 604 l 696 660 l 651 828 q 653 835 651 831 q 635 925 639 910 q 590 1001 618 979 q 556 1017 578 1007 l 532 1013 l 497 1013 q 478 1009 490 1013 q 460 1006 465 1006 q 463 1001 461 1006 q 456 999 463 999 q 450 1003 450 999 l 450 1003 q 444 1007 450 1007 l 285 1007 l 274 993 l 200 993 q 178 980 194 993 q 156 967 161 967 q 153 972 150 967 q 150 976 156 976 q 126 961 142 976 l 157 811 q 217 563 171 744 q 286 349 238 504 l 339 168 q 401 -60 378 36 q 451 -107 422 -83 l 582 -117 l 749 -143 l 767 -133 q 807 -122 800 -139 q 900 133 821 -89 q 1010 431 929 210 q 1093 640 1050 540 q 1164 785 1164 803 z "},"w":{"ha":1624,"x_min":0,"x_max":1554,"o":"m 1554 976 l 1488 724 l 1407 226 l 1407 186 l 1357 -150 q 1331 -190 1357 -169 q 1283 -211 1304 -211 l 1251 -211 l 1210 -197 l 1086 -211 l 975 -242 q 958 -249 971 -240 q 939 -256 946 -258 l 899 -274 l 876 -274 q 853 -254 860 -274 q 760 0 819 -157 l 657 -162 l 353 -162 l 297 -187 l 293 -183 l 276 -197 q 221 -182 256 -194 q 201 -151 207 -174 q 201 -117 196 -131 l 94 499 l 32 960 l 0 1038 l 17 1071 q 43 1097 31 1097 q 54 1096 49 1097 l 58 1093 l 136 1115 l 172 1115 l 200 1107 l 272 1107 q 294 1093 279 1093 l 353 1093 l 383 1111 q 419 1079 400 1097 q 519 860 469 993 l 601 643 q 624 618 607 629 l 646 719 q 706 783 660 781 q 728 793 735 793 q 733 788 733 793 q 739 783 733 783 l 772 783 l 915 811 l 954 824 l 969 819 q 979 826 975 819 q 989 833 983 833 l 1024 833 q 1082 808 1050 833 q 1096 782 1096 797 q 1094 756 1096 749 q 1104 726 1099 738 l 1206 1015 l 1233 1067 l 1285 1067 l 1324 1043 q 1342 1056 1328 1060 q 1372 1051 1353 1054 q 1378 1044 1368 1044 l 1418 1044 l 1468 1031 l 1507 1031 q 1535 1010 1518 1031 q 1554 976 1553 989 m 1425 928 q 1418 940 1425 922 q 1357 963 1378 963 l 1310 963 l 1165 547 q 1167 532 1167 540 q 1131 463 1167 479 q 1108 453 1124 457 l 1065 453 q 1035 494 1035 479 l 1026 585 l 1026 607 q 993 707 1026 649 q 953 721 985 721 l 938 731 q 932 721 938 721 l 858 721 l 783 708 q 758 696 764 708 q 700 514 729 632 l 700 472 q 689 440 700 458 q 665 421 678 421 l 586 421 q 569 433 579 425 q 563 469 568 447 q 476 657 539 518 q 392 882 454 718 q 356 946 367 931 q 301 990 336 969 q 246 1013 265 1011 l 179 1017 q 143 993 172 1017 q 139 981 139 990 l 296 38 q 339 -76 315 -76 q 341 -72 344 -76 q 343 -67 338 -67 l 560 -58 q 607 -47 588 -57 q 697 104 658 26 q 722 171 704 133 q 778 197 749 197 q 807 185 790 197 q 828 163 824 174 q 933 -119 876 8 q 964 -135 940 -135 l 1221 -94 q 1254 -56 1242 -87 q 1268 -3 1261 -40 l 1425 928 z "},"x":{"ha":1365,"x_min":0,"x_max":1321,"o":"m 1321 878 l 1103 418 l 1103 403 q 1267 304 1203 344 q 1278 283 1271 301 q 1286 257 1286 264 q 1261 208 1286 233 q 1215 171 1258 206 q 1136 63 1182 138 l 1072 -42 q 1027 -138 1044 -87 q 985 -197 1010 -189 l 958 -214 l 931 -210 l 638 -6 l 475 -129 l 471 -125 l 239 -274 q 183 -208 189 -264 l 13 124 l 286 440 l 0 801 l 0 828 q 100 944 17 849 q 146 997 113 958 q 193 1071 163 1017 q 226 1101 199 1086 q 271 1115 253 1115 q 317 1093 279 1115 l 714 757 l 1028 1090 l 1060 1090 l 1131 1031 l 1136 1035 l 1321 878 m 1185 838 q 1124 921 1181 879 q 1042 979 1094 943 l 776 675 l 758 638 q 706 617 736 624 l 685 625 q 651 642 661 628 q 642 679 647 650 q 571 754 640 683 q 532 793 557 768 l 497 814 q 349 939 447 857 q 318 950 336 943 q 271 1000 303 969 l 132 821 l 426 436 l 144 124 l 283 -137 l 669 136 l 931 -78 l 1142 238 l 1022 328 l 1014 322 q 967 361 972 329 l 1185 838 z "},"y":{"ha":1261,"x_min":0,"x_max":1224,"o":"m 1224 731 l 936 350 l 957 181 l 965 -42 q 967 -57 965 -46 q 968 -74 968 -68 l 968 -135 l 993 -200 q 994 -210 994 -206 q 936 -274 994 -251 l 922 -265 l 913 -269 l 846 -237 l 833 -237 l 781 -225 l 738 -206 l 733 -210 l 636 -189 l 632 -193 l 592 -181 l 563 -181 l 503 -165 l 474 -165 l 311 -128 q 306 -130 310 -128 q 299 -132 303 -132 q 269 -118 292 -132 q 246 -99 247 -104 l 263 3 l 367 390 q 356 415 368 407 q 183 539 292 458 q 71 636 122 585 l 42 665 q 22 668 35 667 q 0 701 0 699 l 0 739 q 56 799 28 758 q 254 1018 126 869 q 300 1085 268 1040 q 328 1092 304 1089 q 339 1103 343 1103 l 347 1099 l 378 1107 l 410 1107 q 483 1068 414 1107 q 500 1047 489 1065 q 515 1044 506 1046 q 583 1000 539 1025 q 653 960 638 969 q 717 904 681 942 l 779 840 l 1076 1054 q 1100 1044 1082 1049 q 1126 975 1114 1022 q 1149 904 1139 924 q 1179 819 1164 858 q 1219 750 1199 799 l 1224 731 m 1101 729 l 1101 758 l 1036 933 l 1018 933 l 785 728 l 729 728 q 707 758 721 738 q 700 783 707 768 q 640 846 664 825 q 589 888 628 857 q 524 918 563 899 q 443 976 496 939 q 372 1006 390 1006 l 349 1006 l 121 733 l 485 428 l 364 90 l 351 -17 q 394 -47 349 -36 l 433 -64 l 439 -60 l 522 -81 l 547 -81 l 588 -92 l 619 -92 l 733 -117 l 738 -112 l 883 -144 l 872 153 l 851 301 l 832 367 l 832 390 q 860 436 832 408 q 882 446 869 440 q 1046 647 967 514 q 1081 694 1049 651 q 1101 729 1101 722 z "},"z":{"ha":1053,"x_min":0,"x_max":997,"o":"m 996 254 l 843 -181 l 843 -244 l 828 -261 q 771 -274 811 -265 l 701 -247 l 686 -247 l 543 -228 l 536 -232 l 501 -224 l 464 -224 l 210 -201 q 199 -199 207 -201 q 186 -197 190 -197 l 51 -178 q 0 -118 6 -171 l 19 -72 l 19 -57 l 65 289 l 54 331 q 86 382 63 351 q 113 399 93 383 l 128 399 l 411 563 l 378 572 l 371 571 l 64 565 q 11 621 13 579 l 24 693 l 25 928 l 15 967 q 64 1015 31 1013 q 90 1015 86 1017 l 136 1053 q 163 1046 146 1051 l 244 1061 l 249 1057 l 301 1065 q 312 1069 306 1065 q 321 1072 318 1072 l 346 1068 l 429 1081 l 514 1081 l 710 1103 l 790 1103 l 860 1115 q 893 1095 878 1113 q 908 1060 908 1078 q 904 1043 908 1051 l 924 947 l 943 678 l 961 603 q 909 545 953 558 q 771 408 865 532 q 704 317 754 385 l 714 311 q 736 322 726 324 l 879 311 l 964 288 q 985 275 972 288 q 996 254 997 263 m 893 207 l 888 218 l 840 231 l 690 242 l 682 233 l 619 226 q 594 238 607 226 q 581 263 581 250 q 597 307 581 290 q 708 457 633 361 q 849 604 763 513 q 854 628 856 614 l 831 956 q 810 1021 828 985 q 782 1022 799 1022 l 768 1031 q 764 1026 767 1031 q 756 1022 761 1022 l 636 1022 l 317 992 q 315 988 313 992 q 311 983 317 983 l 278 983 q 261 968 264 969 q 253 976 253 968 l 165 942 l 118 942 l 118 654 l 481 654 q 485 649 486 653 q 489 646 485 646 l 511 646 q 515 649 517 646 q 519 653 514 653 l 563 653 q 592 628 578 653 q 596 603 592 619 l 593 575 q 540 546 561 543 l 163 310 l 150 221 l 124 63 l 114 -57 q 129 -89 111 -89 q 136 -86 138 -89 l 160 -97 l 164 -93 l 194 -104 l 401 -132 l 467 -132 l 501 -139 l 743 -154 q 750 -162 746 -154 l 761 -162 l 893 207 z "},"":{"ha":299,"x_min":0,"x_max":0,"o":""}}}
